<svg id="_480_finger_print_flatline" data-name="#480_finger_print_flatline" xmlns="http://www.w3.org/2000/svg" viewBox="0 0 400 300" width="406" height="306" class="illustration styles_illustrationTablet__1DWOa"><path d="M220.23,245.39c0,3.63.41,12.28.81,20.55h59.6c-5-39.67-15.83-119.15-22.46-125.16-49.44-44.86-72.34-44.69-77.53-32.95s8.75,93.07,8.75,93.07S220.15,237.51,220.23,245.39Z" fill="#fff"></path><path d="M280.64,266.44H221a.5.5,0,0,1-.5-.47c-.51-10.59-.78-17.51-.81-20.58h0c-.08-7.61-30.41-43.8-30.71-44.17a.41.41,0,0,1-.11-.23c-.57-3.33-13.92-81.62-8.72-93.36a11.31,11.31,0,0,1,8.41-6.57c8-1.7,27.81,1.15,69.92,39.35,6.61,6,17,81.18,22.62,125.47a.5.5,0,0,1-.5.56Zm-59.12-1h58.56c-9.49-74.79-17.59-120.08-22.23-124.29-41.78-37.9-61.19-40.77-69-39.11a10.35,10.35,0,0,0-7.71,6c-5,11.25,8.13,88.92,8.77,92.65,2.16,2.58,30.78,36.87,30.86,44.7h0C220.76,248.39,221,255.14,221.52,265.44Z" fill="#231f20"></path><rect x="137.79" y="34.06" width="100.8" height="195.51" rx="10.29" fill="#231f20"></rect><path d="M228.29,230.07H148.08a10.8,10.8,0,0,1-10.79-10.79V44.35a10.8,10.8,0,0,1,10.79-10.79h80.21a10.8,10.8,0,0,1,10.79,10.79V219.28A10.8,10.8,0,0,1,228.29,230.07ZM148.08,34.56a9.8,9.8,0,0,0-9.79,9.79V219.28a9.8,9.8,0,0,0,9.79,9.79h80.21a9.81,9.81,0,0,0,9.8-9.79V44.35a9.81,9.81,0,0,0-9.8-9.79Z" fill="#231f20"></path><path d="M147,41h82.33a3.16,3.16,0,0,1,3.16,3.16V218.36a0,0,0,0,1,0,0H143.86a0,0,0,0,1,0,0V44.12A3.16,3.16,0,0,1,147,41Z" fill="#fff"></path><path d="M210.62,48.58H165.76a4.11,4.11,0,0,1-3.91-2.85l-3-9.26H217.5l-3,9.26A4.1,4.1,0,0,1,210.62,48.58Z" fill="#231f20"></path><path d="M210.62,49.08H165.76a4.59,4.59,0,0,1-4.38-3.19l-3-9.27a.49.49,0,0,1,.07-.44.52.52,0,0,1,.41-.21H217.5a.49.49,0,0,1,.4.21.49.49,0,0,1,.07.44l-3,9.27A4.59,4.59,0,0,1,210.62,49.08ZM159.56,37l2.77,8.61a3.59,3.59,0,0,0,3.43,2.5h44.86a3.6,3.6,0,0,0,3.43-2.5L216.81,37Z" fill="#231f20"></path><rect x="143.86" y="59.06" width="88.65" height="1" fill="#e6e7e8"></rect><path d="M195.27,41.46h-24.4a.5.5,0,0,1-.5-.5.5.5,0,0,1,.5-.5h24.4a.5.5,0,0,1,.5.5A.5.5,0,0,1,195.27,41.46Z" fill="#e6e7e8"></path><circle cx="202.78" cy="40.77" r="1.76" fill="#e6e7e8"></circle><path d="M175.73,138.41a10.94,10.94,0,0,1-2.89.39A1,1,0,0,1,172,138a1,1,0,0,1,.52-1.06,1.52,1.52,0,0,1,.56-.12,9.28,9.28,0,0,0,3.9-1,11,11,0,0,0,4.11-3.26,8,8,0,0,0,1.59-3.44c.17-1,.23-1.91.31-2.87a13.78,13.78,0,0,1,.43-3.2,4.47,4.47,0,0,1,1.5-2.2,5.18,5.18,0,0,1,2.29-1.09,4.07,4.07,0,0,1,2,.15,6,6,0,0,1,3.65,3.46,6.83,6.83,0,0,1,.55,2.52,20.54,20.54,0,0,1-.27,4.07,29.87,29.87,0,0,1-.84,3.48,23,23,0,0,1-2.44,5.37,17.46,17.46,0,0,1-5.48,5.67,15.53,15.53,0,0,1-3.79,1.75,5,5,0,0,0-1.09.52,1,1,0,0,0-.42,1.33,1.23,1.23,0,0,1,0,1.06,1,1,0,0,1-1.72-.18,3.23,3.23,0,0,1-.12-2.27,3.14,3.14,0,0,1,1.25-1.6,7.36,7.36,0,0,1,1.88-.84,13,13,0,0,0,2.66-1.19,15.19,15.19,0,0,0,5.22-5.2,21.66,21.66,0,0,0,1.92-4,23.19,23.19,0,0,0,1-3.74,17.14,17.14,0,0,0,.29-4.63,4.46,4.46,0,0,0-1.47-2.91,3.52,3.52,0,0,0-1.2-.73,2.44,2.44,0,0,0-2.06.17,2.76,2.76,0,0,0-1.42,1.65,9.55,9.55,0,0,0-.25,1.4c-.07.69-.1,1.38-.15,2.07a14.64,14.64,0,0,1-.51,3.28,10.34,10.34,0,0,1-1.47,3A13.17,13.17,0,0,1,175.73,138.41Z" fill="#68e1fd"></path><path d="M196.25,134c-.31,1-.62,1.9-.92,2.87s-.56,1.85-.78,2.79a3.86,3.86,0,0,0-.05,1.79,1.78,1.78,0,0,0,1.14,1.29,1.05,1.05,0,0,1,.75.81,1,1,0,0,1-1.17,1.1,3.7,3.7,0,0,1-2.35-1.92,4.63,4.63,0,0,1-.36-2.27,13.28,13.28,0,0,1,.72-3.42c.37-1.1.76-2.2,1.11-3.3.4-1.26.8-2.53,1.13-3.81a13.4,13.4,0,0,0,.46-3.57,8.89,8.89,0,0,0-1.77-5.18,8.72,8.72,0,0,0-2.86-2.61,7.52,7.52,0,0,0-4.91-1,6.26,6.26,0,0,0-4.86,3.69,11.93,11.93,0,0,0-1.13,4.1,9.93,9.93,0,0,1-3.23,6.57,9.32,9.32,0,0,1-3.94,2.08c-.53.14-1.08.25-1.62.34a1,1,0,0,1-1.06-.8,1,1,0,0,1,.84-1.15,7.85,7.85,0,0,0,5.43-2.94,7.67,7.67,0,0,0,1.41-3c.13-.6.21-1.21.29-1.82a12.2,12.2,0,0,1,1.89-5.35,8.21,8.21,0,0,1,4-3.22,8.89,8.89,0,0,1,4.13-.47,9.42,9.42,0,0,1,3.58,1.12,10.41,10.41,0,0,1,3.09,2.55,11.86,11.86,0,0,1,2.14,3.71,10.73,10.73,0,0,1,.51,4.32,16.2,16.2,0,0,1-.47,3C197,131.62,196.64,132.81,196.25,134Z" fill="#68e1fd"></path><path d="M188.48,113.14a11.07,11.07,0,0,0-7.28,1.77c-.54.36-1.25.77-1.77.38a1,1,0,0,1-.18-1.22,2.55,2.55,0,0,1,1-.9,13.88,13.88,0,0,1,13.8-.34,15.94,15.94,0,0,1,8.09,14.35c0,.93-.14,1.87-.25,2.8a20.73,20.73,0,0,1-1,4.32c-.3.89-.67,1.75-1,2.62a4.65,4.65,0,0,0-.37,2.24,3.16,3.16,0,0,0,.83,1.9c.52.53,1.34.76,1.78,1.36.31.42.38,1.19-.19,1.46a1.18,1.18,0,0,1-.9-.06,5.58,5.58,0,0,1-2-1.32,4.53,4.53,0,0,1-1.12-1.74,7.12,7.12,0,0,1-.34-1.52,6,6,0,0,1,.44-2.87c.23-.58.53-1.14.73-1.74a29.59,29.59,0,0,0,.94-3.08,22.51,22.51,0,0,0,.53-3.27,16.23,16.23,0,0,0-.08-3.75,10.41,10.41,0,0,0-.58-2.48,21,21,0,0,0-1-2.26,13.4,13.4,0,0,0-4.28-4.61,12.57,12.57,0,0,0-2.82-1.4A12.27,12.27,0,0,0,188.48,113.14Z" fill="#68e1fd"></path><path d="M202.16,114a25,25,0,0,1,3.37,6.5,2.43,2.43,0,0,1,.17,1.45.93.93,0,0,1-1.48.52c-.94-.66-1.2-3-1.67-4.06a17.38,17.38,0,0,0-7.14-7.95,17,17,0,0,0-3.61-1.49,15.34,15.34,0,0,0-5.13-.57,15.73,15.73,0,0,0-3.19.52,14.69,14.69,0,0,0-5.46,2.83,14.09,14.09,0,0,0-3.81,4.76c-.44.9-.85,1.82-1.22,2.75-.23.58-.36,1.21-.54,1.81a.92.92,0,0,1-.82.71.89.89,0,0,1-1-.59,1.23,1.23,0,0,1,0-.66,20.15,20.15,0,0,1,1.07-3.21,21.85,21.85,0,0,1,2-3.66,16.7,16.7,0,0,1,3.35-3.57,16.07,16.07,0,0,1,3.68-2.23,16.47,16.47,0,0,1,4-1.19,16.94,16.94,0,0,1,4.09-.2,20.1,20.1,0,0,1,3,.48,18.07,18.07,0,0,1,5,2A18.45,18.45,0,0,1,202.16,114Z" fill="#68e1fd"></path><path d="M188,101.68a25.82,25.82,0,0,1,3.17.3,19.89,19.89,0,0,1,9.5,4.33c.51.42,1,.87,1.47,1.32a.93.93,0,0,1,0,1.36,1,1,0,0,1-1.36,0,20.52,20.52,0,0,0-3.47-2.69,18.08,18.08,0,0,0-4.31-1.92,18.87,18.87,0,0,0-3.33-.66,18.49,18.49,0,0,0-3.72,0,17.9,17.9,0,0,0-4.58,1,19,19,0,0,0-5.38,3c-.47.39-.94.78-1.39,1.2a1,1,0,1,1-1.3-1.42,22.06,22.06,0,0,1,5.16-3.63,20.49,20.49,0,0,1,3.62-1.43A20.27,20.27,0,0,1,188,101.68Z" fill="#68e1fd"></path><path d="M196.92,149.58a5.83,5.83,0,0,1-3.36-1.14c-.84-.6-1.6-1.3-2.4-1.95a6.85,6.85,0,0,0-.7-.5.73.73,0,0,0-.89.2c-.58.51-1.13,1-1.67,1.58a21.29,21.29,0,0,1-3.06,2.79,10.33,10.33,0,0,1-3.54,1.61,1.55,1.55,0,0,1-1.06,0,1,1,0,0,1-.57-.95,1,1,0,0,1,.74-.89,8.25,8.25,0,0,0,3.44-1.48,23.67,23.67,0,0,0,3-2.79,18.51,18.51,0,0,1,1.75-1.57,2.53,2.53,0,0,1,2.19-.49,3.31,3.31,0,0,1,1.4.76c.66.55,1.3,1.13,2,1.67a4.89,4.89,0,0,0,2,1,3.71,3.71,0,0,0,1.9-.05,7.33,7.33,0,0,0,1.75-.81A1,1,0,0,1,201,147a.94.94,0,0,1-.23,1.3,6.91,6.91,0,0,1-2.54,1.12C197.8,149.47,197.36,149.51,196.92,149.58Z" fill="#68e1fd"></path><path d="M206.69,129.65a28.53,28.53,0,0,1-.31,3.93,23.3,23.3,0,0,1-1.32,4.86c-.24.63-.53,1.23-.82,1.83a1,1,0,0,1-1.22.44,1,1,0,0,1-.53-1.26c.31-.74.67-1.46.93-2.21.32-.94.6-1.91.83-2.87a19.34,19.34,0,0,0,.47-5.57c0-.82-.15-1.64-.25-2.45a1,1,0,0,1,.8-1.11.94.94,0,0,1,1.1.7A19.44,19.44,0,0,1,206.69,129.65Z" fill="#68e1fd"></path><path d="M173,126.77a6.17,6.17,0,0,0,1.52-3.61,19.36,19.36,0,0,1,.94-3.59,15.54,15.54,0,0,1,1.15-2.4,1,1,0,1,1,1.66,1,12.74,12.74,0,0,0-1.34,3.13c-.21.77-.35,1.56-.51,2.35a13,13,0,0,1-.92,3,5,5,0,0,1-3,2.76,11.72,11.72,0,0,1-1.77.32,1,1,0,0,1-1-.89c0-1.18,1.33-1,2.09-1.32A4.23,4.23,0,0,0,173,126.77Z" fill="#68e1fd"></path><path d="M189.39,126.1a24.33,24.33,0,0,1-.35,3.41,19.43,19.43,0,0,1-1.17,4.17,16,16,0,0,1-2.19,3.81,1,1,0,1,1-1.54-1.19,14.55,14.55,0,0,0,2-3.63,17.71,17.71,0,0,0,1-3.44,24.94,24.94,0,0,0,.34-3.86,1,1,0,0,1,.62-.94,1,1,0,0,1,1.15.4,1.72,1.72,0,0,1,.16.62C189.41,125.66,189.39,125.88,189.39,126.1Z" fill="#68e1fd"></path><path d="M191.41,150.64a12,12,0,0,1,3.21.44,1,1,0,0,1,.8.95,1,1,0,0,1-.75,1,.79.79,0,0,1-.43,0,10.62,10.62,0,0,0-2.68-.42,8.93,8.93,0,0,0-2.41.28,9.23,9.23,0,0,0-2.31,1,1,1,0,0,1-1.28-.38,1,1,0,0,1,.28-1.27,12.76,12.76,0,0,1,1.61-.81,10.66,10.66,0,0,1,1.75-.52c.72-.14,1.46-.19,2.2-.29Z" fill="#68e1fd"></path><path d="M175.06,143.48a1,1,0,0,1-1-.78,1,1,0,0,1,.73-1.16c.63-.14,1.26-.25,1.87-.42a14.2,14.2,0,0,0,3.61-1.47c.39-.23.77-.48,1.14-.73a1,1,0,0,1,1.37.22,1,1,0,0,1-.26,1.37,13.64,13.64,0,0,1-3.74,2c-.89.31-1.8.56-2.7.81C175.76,143.37,175.41,143.41,175.06,143.48Z" fill="#68e1fd"></path><path d="M188.19,160.35a32.54,32.54,0,1,1,32.54-32.54A32.57,32.57,0,0,1,188.19,160.35Zm0-64.08a31.54,31.54,0,1,0,31.54,31.54A31.58,31.58,0,0,0,188.19,96.27Z" fill="#d1d3d4"></path><path d="M192.81,265.94a64.1,64.1,0,0,1,6.48-16.46c8.09-13.68,44.83-34.12,46.49-36.23,3.95-5,5.47-13.95-.78-14.19s-34.66,7.1-43.83,13.2c0,0-3.69-39-3.32-48.64,1.77-46.7-13.16-43.23-15.14-38.16s-4.87,64.24-4.87,64.24-7.35-7.28-11.69-7.5-8.09,8.17-8.09,8.17S151,185,147.38,185.86c-8.45,2-7.77,12-7.77,12s-4-5-7.45-4.79c-2.92.19-8.74,3.68-9.84,16.26-1.57,18.07-2.47,40.88-3,56.59Z" fill="#fff"></path><path d="M192.81,266.44H119.36a.48.48,0,0,1-.36-.15.46.46,0,0,1-.14-.36c.73-23.33,1.72-42.38,3-56.62,1.1-12.74,7-16.5,10.3-16.72,2.7-.18,5.58,2.48,7,4,.17-2.89,1.29-9.59,8.14-11.19,3.28-.76,8.91,3,10.61,4.23.94-1.9,4.21-7.91,8.12-7.91h.19c3.66.18,9.16,5,11.21,6.88.42-8.34,3-58.54,4.85-63.31a5.23,5.23,0,0,1,5.85-3c3.53.73,11.6,6.24,10.26,41.39-.33,8.69,2.72,42.1,3.25,47.76,9.91-6.08,36.38-12.85,43.09-12.85H245a4.46,4.46,0,0,1,4.14,2.57c1.57,3.42-.28,9-3,12.43-.46.59-2.72,2-7.39,5-11.58,7.38-33.13,21.12-39.06,31.15a62.92,62.92,0,0,0-6.43,16.34A.5.5,0,0,1,192.81,266.44Zm-72.94-1h72.55a63.71,63.71,0,0,1,6.44-16.22c6-10.23,27.74-24.06,39.39-31.49a75.86,75.86,0,0,0,7.14-4.79c2.82-3.58,4.1-8.69,2.86-11.39a3.45,3.45,0,0,0-3.27-2h-.3c-6.61,0-34.27,7.16-43.23,13.13a.51.51,0,0,1-.49,0,.49.49,0,0,1-.28-.41c0-.39-3.7-39.18-3.33-48.71,1.34-35.35-6.9-39.84-9.46-40.37a4.19,4.19,0,0,0-4.72,2.41c-1.93,4.94-4.8,63.5-4.83,64.09a.51.51,0,0,1-.32.44.49.49,0,0,1-.53-.11c-.07-.07-7.26-7.15-11.36-7.36H166c-3.89,0-7.42,7.79-7.46,7.87a.47.47,0,0,1-.33.28.5.5,0,0,1-.43-.08c-.06-.05-6.92-5.2-10.27-4.42-7.93,1.85-7.41,11.11-7.38,11.5a.51.51,0,0,1-.32.5.49.49,0,0,1-.57-.15s-3.88-4.83-7-4.61c-2.78.18-8.32,3.72-9.37,15.8C121.59,223.52,120.6,242.37,119.87,265.44Z" fill="#231f20"></path><path d="M152.36,108.63a1,1,0,0,1-1-1v-18a1,1,0,0,1,1-1h18.46a1,1,0,0,1,0,2H153.36v17A1,1,0,0,1,152.36,108.63Z" fill="#68e1fd"></path><path d="M224,108.63a1,1,0,0,1-1-1v-17H205.56a1,1,0,0,1,0-2H224a1,1,0,0,1,1,1v18A1,1,0,0,1,224,108.63Z" fill="#68e1fd"></path><path d="M170.82,167H152.36a1,1,0,0,1-1-1V148a1,1,0,0,1,2,0v17h17.46a1,1,0,0,1,0,2Z" fill="#68e1fd"></path><path d="M224,167H205.56a1,1,0,0,1,0-2H223V148a1,1,0,0,1,2,0v18A1,1,0,0,1,224,167Z" fill="#68e1fd"></path><path d="M269.18,185.67s-5.69-41.81-14-49.53c-9.83-9.17-28.07-32.32-33-29.88-7.45,3.68,2.92,31.12,16.36,41,0,0-2.45,15.67,4.43,44.49" fill="#fff"></path><path d="M243,192.16a.46.46,0,0,1-.45-.35c-6.33-26.53-4.75-42.16-4.47-44.39-9-6.8-19.71-25.59-18.77-36.56.22-2.55,1.13-4.24,2.7-5,3.47-1.73,11.3,6.35,22.86,18.87,3.94,4.28,7.67,8.32,10.64,11.09,8.3,7.74,13.87,48.09,14.1,49.8a.45.45,0,0,1-.39.51.48.48,0,0,1-.52-.39c-.05-.41-5.75-41.73-13.81-49.25-3-2.8-6.74-6.85-10.7-11.14-8.31-9-18.66-20.21-21.78-18.67-1.26.62-2,2.06-2.18,4.27-.79,9.15,8.09,28.21,18.61,35.9a.49.49,0,0,1,.18.44c0,.16-2.35,15.93,4.42,44.32a.46.46,0,0,1-.34.55Z" fill="#231f20"></path></svg>