<svg xmlns="http://www.w3.org/2000/svg" viewBox="0 0 400 300" width="406" height="306" class="illustration styles_illustrationTablet__1DWOa"><g id="_553_wallet_flatline" data-name="#553_wallet_flatline"><rect x="93.84" y="95.95" width="191.66" height="69.96" transform="translate(62.46 -61.25) rotate(21.88)" fill="#fff"></rect><path d="M265.57,199.6a.63.63,0,0,1-.19,0L87.52,128.14a.5.5,0,0,1-.27-.65l26.07-64.92a.5.5,0,0,1,.65-.28l177.86,71.43a.49.49,0,0,1,.27.26.53.53,0,0,1,0,.39L266,199.29A.49.49,0,0,1,265.57,199.6ZM88.36,127.4l176.93,71,25.7-64L114.06,63.4Z" fill="#231f20"></path><rect x="85.76" y="96.21" width="191.66" height="69.96" transform="matrix(0.98, 0.19, -0.19, 0.98, 28.24, -32.12)" fill="#fff"></rect><path d="M269,184.24h-.1L80.77,147.82a.51.51,0,0,1-.4-.59l13.3-68.68a.47.47,0,0,1,.21-.32.45.45,0,0,1,.37-.08l188.17,36.42a.49.49,0,0,1,.4.58l-13.29,68.69a.54.54,0,0,1-.21.32A.5.5,0,0,1,269,184.24ZM81.45,146.93l187.19,36.23,13.1-67.7L94.55,79.23Z" fill="#231f20"></path><rect x="93.84" y="105.75" width="191.66" height="69.96" transform="translate(10.17 -12.76) rotate(3.96)" fill="#fff"></rect><path d="M282.87,182.74h0L91.62,169.51a.51.51,0,0,1-.34-.17.48.48,0,0,1-.12-.36L96,99.19a.5.5,0,0,1,.53-.47L287.73,112a.51.51,0,0,1,.34.17.48.48,0,0,1,.12.36l-4.83,69.8A.49.49,0,0,1,282.87,182.74ZM92.19,168.55,282.4,181.71l4.76-68.8L97,99.75Z" fill="#231f20"></path><rect x="247.76" y="76.53" width="66.02" height="93.21" transform="translate(37.86 -63.92) rotate(13.92)" fill="#fff"></rect><path d="M301.6,176.81h-.12l-64.09-15.88a.51.51,0,0,1-.36-.61l22.42-90.47a.48.48,0,0,1,.23-.31.49.49,0,0,1,.37-.06l64.09,15.88a.52.52,0,0,1,.31.23.5.5,0,0,1,.05.38l-22.42,90.47A.49.49,0,0,1,301.6,176.81Zm-63.48-16.74,63.11,15.64L323.41,86.2,260.3,70.56Z" fill="#231f20"></path><rect x="288.3" y="80.38" width="16" height="93.21" transform="translate(39.24 -67.54) rotate(13.92)" fill="#231f20"></rect><path d="M292.85,174.65l-.12,0-15.53-3.85a.49.49,0,0,1-.36-.6L299.26,79.7a.5.5,0,0,1,.22-.31.57.57,0,0,1,.38,0l15.53,3.85a.49.49,0,0,1,.37.6l-22.42,90.48A.51.51,0,0,1,292.85,174.65Zm-14.92-4.72,14.56,3.61L314.67,84l-14.56-3.61Z" fill="#231f20"></path><path d="M277.29,102a8.12,8.12,0,0,1-2-.23,8,8,0,0,1,3.86-15.56,8,8,0,0,1,5.85,9.7h0a8,8,0,0,1-7.76,6.09Zm0-15a7,7,0,1,0,3.62,13,6.93,6.93,0,0,0,3.19-4.32h0A7,7,0,0,0,279,87.22,7,7,0,0,0,277.27,87Z" fill="#231f20"></path><path d="M274.65,112.68a8,8,0,1,1,7.77-6.09h0a8,8,0,0,1-7.77,6.09Zm0-15a7,7,0,1,0,6.8,8.7h0a7,7,0,0,0-6.8-8.7Z" fill="#231f20"></path><rect x="197.46" y="67.43" width="66.02" height="93.21" transform="translate(-18.45 49.54) rotate(-11.8)" fill="#fff"></rect><path d="M207.69,166.9a.43.43,0,0,1-.27-.08.5.5,0,0,1-.22-.31L188.14,75.27a.52.52,0,0,1,.39-.6l64.62-13.5a.51.51,0,0,1,.6.39l19.06,91.24a.56.56,0,0,1-.07.38.49.49,0,0,1-.32.21l-64.63,13.5ZM189.22,75.55l18.86,90.26,63.65-13.29L252.87,62.25Z" fill="#231f20"></path><rect x="238.14" y="64.16" width="16" height="93.21" transform="translate(-17.45 52.67) rotate(-11.8)" fill="#231f20"></rect><path d="M247.84,158.52a.57.57,0,0,1-.28-.08.54.54,0,0,1-.21-.32L228.29,66.88a.51.51,0,0,1,.07-.38.45.45,0,0,1,.31-.21L244.34,63a.49.49,0,0,1,.59.38L264,154.64a.49.49,0,0,1-.39.59l-15.66,3.28ZM229.37,67.16l18.85,90.27,14.69-3.07L244.05,64.1Z" fill="#231f20"></path><path d="M214.68,97.34a8,8,0,0,1-1.62-15.86,8,8,0,0,1,9.48,6.21h0a8,8,0,0,1-6.21,9.48A8.4,8.4,0,0,1,214.68,97.34Zm0-15a7.14,7.14,0,0,0-1.45.15,7,7,0,1,0,8.3,5.43h0a7,7,0,0,0-6.85-5.58Z" fill="#231f20"></path><path d="M216.93,108.07a8,8,0,1,1,7.85-9.66h0a8,8,0,0,1-6.21,9.49A8.38,8.38,0,0,1,216.93,108.07Zm0-15a7,7,0,1,0,5.87,10.86,7,7,0,0,0,1-5.28h0A7,7,0,0,0,216.94,93Z" fill="#231f20"></path><circle cx="173.49" cy="117.88" r="24.52" fill="#fff"></circle><path d="M173.49,142.9a25,25,0,1,1,25-25A25,25,0,0,1,173.49,142.9Zm0-49a24,24,0,1,0,24,24A24,24,0,0,0,173.49,93.86Z" fill="#231f20"></path><path d="M173.49,135.72a17.84,17.84,0,1,1,17.84-17.84A17.86,17.86,0,0,1,173.49,135.72Zm0-34.68a16.84,16.84,0,1,0,16.84,16.84A16.86,16.86,0,0,0,173.49,101Z" fill="#e6e7e8"></path><rect x="67.44" y="114.78" width="258.24" height="123.55" rx="15.79" fill="#fff"></rect><path d="M309.9,238.84H83.23a16.31,16.31,0,0,1-16.29-16.29v-92a16.31,16.31,0,0,1,16.29-16.29H309.9a16.31,16.31,0,0,1,16.29,16.29v92A16.31,16.31,0,0,1,309.9,238.84ZM83.23,115.28a15.31,15.31,0,0,0-15.29,15.29v92a15.31,15.31,0,0,0,15.29,15.29H309.9a15.31,15.31,0,0,0,15.29-15.29v-92a15.31,15.31,0,0,0-15.29-15.29Z" fill="#231f20"></path><rect x="92.73" y="122.61" width="207.66" height="107.9" fill="#68e1fd"></rect><path d="M79.27,178.42a.5.5,0,0,1-.5-.5v-8.48a.5.5,0,0,1,.5-.5.5.5,0,0,1,.5.5v8.48A.5.5,0,0,1,79.27,178.42Z" fill="#231f20"></path><path d="M79.27,184.18a.5.5,0,0,1-.5-.5V180.8a.5.5,0,0,1,.5-.5.51.51,0,0,1,.5.5v2.88A.5.5,0,0,1,79.27,184.18Z" fill="#231f20"></path><rect x="286.08" y="163.63" width="46.48" height="25.86" rx="4.31" fill="#fff"></rect><path d="M328.25,190H290.39a4.82,4.82,0,0,1-4.81-4.81V167.94a4.82,4.82,0,0,1,4.81-4.81h37.86a4.82,4.82,0,0,1,4.81,4.81v17.24A4.82,4.82,0,0,1,328.25,190Zm-37.86-25.86a3.82,3.82,0,0,0-3.81,3.81v17.24a3.82,3.82,0,0,0,3.81,3.81h37.86a3.82,3.82,0,0,0,3.81-3.81V167.94a3.82,3.82,0,0,0-3.81-3.81Z" fill="#231f20"></path><circle cx="319.02" cy="176.56" r="6.67" fill="#231f20"></circle><path d="M319,183.73a7.17,7.17,0,1,1,7.17-7.17A7.18,7.18,0,0,1,319,183.73Zm0-13.34a6.17,6.17,0,1,0,6.17,6.17A6.18,6.18,0,0,0,319,170.39Z" fill="#231f20"></path><path d="M224.45,203.76a.51.51,0,0,1-.37-.84l61.63-67.48a.5.5,0,1,1,.74.68l-61.63,67.47A.5.5,0,0,1,224.45,203.76Z" fill="#fff"></path><path d="M156.72,211a.5.5,0,0,1-.34-.86l33.52-32.55a.5.5,0,1,1,.7.71l-33.53,32.56A.52.52,0,0,1,156.72,211Z" fill="#fff"></path><path d="M139.58,177.06a.54.54,0,0,1-.37-.16.5.5,0,0,1,0-.71l42-38.17a.51.51,0,0,1,.71,0,.49.49,0,0,1,0,.7l-42,38.17A.5.5,0,0,1,139.58,177.06Z" fill="#fff"></path></g></svg>