<?xml version="1.0" standalone="no"?>
<!DOCTYPE svg PUBLIC "-//W3C//DTD SVG 20010904//EN"
 "http://www.w3.org/TR/2001/REC-SVG-20010904/DTD/svg10.dtd">
<svg version="1.0" xmlns="http://www.w3.org/2000/svg"
 width="4000.000000pt" height="2000.000000pt" viewBox="0 0 4000.000000 2000.000000"
 preserveAspectRatio="xMidYMid meet">
<metadata>
Created by potrace 1.16, written by Peter Selinger 2001-2019
</metadata>
<g transform="translate(0.000000,2000.000000) scale(0.100000,-0.100000)"
fill="#000000" stroke="none">
<path d="M11746 17731 c-3 -5 -5 -3487 -3 -7738 l2 -7728 633 -3 c347 -1 632
1 632 6 0 4 14 111 30 237 17 127 40 298 51 380 104 794 191 1329 318 1960 29
143 55 271 57 284 5 22 8 23 47 17 108 -18 189 -25 265 -26 72 0 82 -2 82 -18
0 -34 -210 -1497 -245 -1706 -34 -201 -66 -374 -101 -551 -13 -67 -106 -467
-129 -558 l-7 -27 3051 0 3051 0 0 7734 0 7734 -31 6 c-50 10 -7697 7 -7703
-3z m2457 -985 c52 -22 79 -59 85 -116 5 -59 -10 -101 -49 -135 -26 -21 -27
-24 -11 -29 31 -10 83 -72 92 -109 10 -46 -2 -112 -27 -145 -40 -54 -84 -67
-246 -70 -106 -3 -152 0 -162 8 -13 10 -15 59 -15 295 0 156 3 290 6 299 5 14
28 16 150 16 100 0 155 -4 177 -14z m620 0 c12 -30 -16 -36 -165 -36 l-148 0
0 -110 0 -110 123 0 c89 0 128 -4 142 -14 17 -12 17 -16 5 -30 -7 -10 -23 -16
-34 -15 -12 0 -69 1 -128 0 l-108 -1 0 -115 0 -115 149 0 c124 0 151 -3 162
-16 11 -14 10 -18 -6 -30 -14 -11 -58 -14 -176 -14 -87 0 -164 3 -173 6 -14 5
-16 42 -16 303 0 164 3 301 7 304 3 4 86 7 184 7 141 0 178 -3 182 -14z m468
-276 c65 -157 118 -292 118 -301 1 -19 -28 -34 -40 -22 -4 4 -23 44 -41 88
-40 94 -33 91 -208 87 l-118 -3 -32 -85 c-28 -72 -36 -84 -56 -84 -14 0 -24 6
-24 14 0 8 29 83 64 168 72 174 154 372 167 406 6 16 16 22 31 20 18 -2 40
-49 139 -288z m279 65 c6 -251 11 -271 89 -314 81 -45 191 -17 235 59 19 32
21 57 26 255 5 205 6 220 24 223 10 2 22 -2 27 -10 5 -7 9 -99 9 -204 0 -257
-18 -312 -118 -371 -39 -24 -58 -28 -117 -28 -82 1 -139 25 -179 78 -49 64
-56 104 -56 312 0 107 3 201 6 210 4 9 15 15 28 13 20 -3 21 -8 26 -223z m989
212 c21 -26 -9 -37 -106 -37 l-93 0 0 -269 c0 -229 -2 -272 -15 -285 -9 -8
-22 -13 -30 -10 -13 5 -15 49 -15 285 l0 279 -99 0 c-100 0 -118 6 -107 35 8
21 448 22 465 2z m191 -112 c50 -69 95 -125 100 -125 5 0 48 56 97 125 48 68
93 125 99 125 18 0 37 -28 28 -42 -4 -7 -49 -70 -101 -139 l-93 -126 0 -146
c0 -132 -2 -147 -18 -156 -36 -19 -42 5 -42 155 l0 142 -105 142 c-82 111
-102 146 -94 157 6 7 17 13 24 13 8 0 55 -56 105 -125z m-3210 -365 c28 -28
34 -61 27 -152 -8 -97 -35 -164 -73 -178 -22 -9 -37 -6 -88 21 -81 42 -157 91
-179 117 -11 12 -17 31 -15 49 3 24 8 28 37 31 21 2 56 -6 91 -22 32 -14 63
-26 69 -26 7 0 11 21 10 58 -1 56 12 99 35 114 21 14 66 8 86 -12z m3872 -67
c21 -18 23 -55 7 -102 -6 -18 -9 -35 -5 -38 3 -3 32 4 64 16 78 29 123 25 136
-11 20 -56 -26 -112 -113 -139 -45 -14 -182 -24 -214 -15 -14 3 -30 18 -37 35
-10 25 -7 43 21 133 17 56 39 111 47 121 19 22 70 22 94 0z m-3230 -306 c18
-8 44 -26 57 -40 20 -22 22 -29 11 -41 -10 -14 -16 -13 -44 8 -70 53 -170 58
-224 11 -22 -19 -27 -31 -26 -66 2 -53 27 -76 122 -109 133 -46 175 -79 188
-145 21 -114 -103 -204 -241 -175 -87 18 -178 98 -131 116 10 4 30 -6 51 -25
98 -86 265 -54 265 51 0 49 -27 78 -95 103 -151 54 -199 89 -211 152 -25 132
132 222 278 160z m1455 8 c60 -18 135 -81 165 -139 30 -58 36 -176 13 -246
-25 -76 -102 -153 -174 -174 -30 -9 -66 -16 -81 -16 -66 0 -134 31 -186 84
-62 64 -86 126 -83 219 4 130 72 230 181 268 65 23 100 23 165 4z m658 -14
c56 -25 119 -97 140 -160 23 -71 17 -182 -14 -242 -53 -103 -137 -155 -246
-153 -79 2 -141 30 -192 88 -51 58 -73 120 -73 202 0 148 82 252 225 288 33 8
117 -4 160 -23z m-1704 -1 c28 -47 216 -526 212 -537 -6 -16 -27 -17 -41 0 -6
6 -22 42 -37 80 l-27 67 -132 0 -133 0 -12 -27 c-7 -16 -22 -52 -33 -80 -19
-52 -43 -68 -54 -38 -4 8 10 54 29 102 35 86 145 355 173 421 14 35 39 40 55
12z m357 -243 l2 -257 123 -1 c162 -1 175 -4 163 -34 -5 -13 -28 -15 -168 -13
l-163 3 -3 270 c-1 148 0 276 3 283 3 7 13 12 22 10 17 -3 18 -25 21 -261z
m1832 24 l175 -239 3 234 c2 203 4 236 18 241 9 3 20 0 25 -8 5 -8 9 -131 9
-274 0 -261 -3 -285 -35 -285 -6 0 -60 66 -120 148 -60 81 -138 187 -174 235
l-66 88 -3 -231 c-2 -200 -5 -232 -18 -237 -9 -3 -20 0 -25 8 -10 15 -12 520
-2 545 14 36 47 2 213 -225z m-1870 -1507 c34 -29 60 -73 60 -102 0 -19 -40
-62 -77 -81 -12 -6 -84 -33 -160 -59 -156 -54 -237 -96 -352 -183 -98 -73
-185 -167 -262 -281 -70 -103 -109 -136 -145 -119 -97 44 -14 265 166 440 140
137 416 324 565 382 95 37 162 38 205 3z m666 -68 c258 -64 473 -184 653 -366
328 -328 483 -812 431 -1350 -17 -182 -40 -260 -89 -304 -12 -11 -21 -25 -21
-32 0 -7 -44 -22 -117 -39 -150 -33 -366 -105 -464 -154 -201 -101 -348 -207
-411 -298 -16 -24 -52 -69 -80 -100 -28 -32 -75 -94 -104 -139 l-54 -81 -114
-6 c-283 -15 -526 52 -766 212 -76 50 -215 177 -264 240 -185 239 -288 509
-318 836 -12 140 -1 334 28 450 20 83 87 255 99 255 70 1 139 56 236 188 161
215 313 327 580 422 130 46 163 65 217 124 42 46 65 104 56 142 -5 21 -2 23
38 27 23 3 115 3 203 2 130 -3 179 -8 261 -29z m2088 -41 c36 -24 54 -80 61
-187 l7 -97 47 19 c59 23 148 21 186 -4 82 -54 54 -175 -52 -229 -52 -27 -205
-68 -256 -68 -74 -1 -136 35 -166 94 -24 49 -24 49 -13 217 11 177 23 226 66
255 27 19 90 19 120 0z m-4774 -632 c147 -87 77 -455 -104 -542 -59 -29 -129
-28 -192 4 -56 28 -252 190 -281 232 -46 65 -55 141 -22 174 19 19 30 21 93
17 67 -5 76 -8 165 -66 51 -34 97 -62 101 -62 4 0 12 32 18 70 13 86 38 138
82 168 40 27 100 29 140 5z m4312 -1516 c452 -118 840 -549 983 -1092 82 -310
68 -645 -38 -905 -141 -348 -427 -579 -997 -803 -273 -108 -403 -141 -540
-140 -116 1 -208 28 -385 113 -568 273 -876 615 -985 1097 -120 524 102 1106
540 1415 197 139 407 224 740 298 254 57 504 63 682 17z m-2942 -2682 c198
-23 341 -58 503 -123 l68 -27 -6 -40 c-16 -99 -50 -247 -76 -335 -17 -52 -34
-126 -40 -165 -5 -38 -12 -77 -15 -87 -24 -77 109 77 144 167 29 74 72 274 72
336 0 30 4 60 8 67 11 16 147 -66 260 -155 88 -70 272 -248 272 -263 0 -6 -26
-43 -57 -84 -32 -40 -81 -105 -110 -144 -49 -68 -51 -72 -32 -83 49 -26 85 1
214 159 l60 74 53 -59 c199 -217 266 -338 312 -562 11 -55 20 -101 20 -103 0
-7 -121 -102 -160 -125 -19 -12 -48 -35 -64 -52 -25 -26 -27 -31 -13 -37 29
-11 82 5 166 50 l81 44 0 -67 c0 -152 -70 -276 -210 -371 -151 -102 -608 -303
-945 -415 -102 -34 -274 -85 -286 -85 -3 0 -12 26 -18 58 -6 31 -22 81 -36
110 -20 44 -22 52 -8 52 25 0 154 66 195 100 25 20 41 45 48 72 6 22 9 42 7
44 -10 10 -101 -18 -131 -40 -51 -39 -165 -106 -180 -106 -7 0 -20 8 -29 18
-15 16 -13 23 23 97 115 231 213 462 246 577 28 100 30 136 10 164 -15 19 -15
19 -34 -1 -10 -11 -29 -49 -42 -85 -12 -36 -85 -192 -161 -347 -76 -155 -139
-285 -139 -290 -1 -29 -17 -32 -59 -12 -49 23 -182 59 -221 59 -15 0 -41 3
-57 6 -28 6 -30 10 -57 122 -47 192 -123 416 -151 442 l-24 23 -11 -28 c-13
-35 6 -166 59 -400 l38 -165 -26 -6 c-89 -20 -172 -58 -224 -104 l-35 -30 -88
92 c-255 265 -343 352 -350 345 -9 -8 73 -178 119 -247 16 -25 73 -88 126
-140 53 -52 95 -98 93 -103 -1 -5 2 -6 7 -3 5 3 16 3 25 0 14 -5 14 -9 0 -36
-8 -16 -19 -28 -24 -26 -7 3 -177 155 -344 308 -340 311 -637 633 -697 756
-70 143 -20 299 159 492 58 62 72 72 72 51 0 -19 140 -248 211 -345 68 -92
162 -175 179 -158 14 14 -40 122 -109 217 -63 88 -186 276 -186 286 -1 3 -10
21 -22 40 l-21 33 51 46 c29 25 54 48 57 52 33 41 292 210 437 283 97 50 112
55 117 40 3 -10 28 -117 56 -238 96 -420 132 -546 180 -628 24 -42 47 -74 52
-71 16 10 9 182 -13 262 -76 287 -176 617 -213 703 -6 13 15 22 107 52 112 36
274 76 310 77 16 0 17 -6 12 -43 -12 -81 19 -288 52 -342 24 -39 30 5 25 200
l-5 194 34 5 c110 18 240 19 389 1z m3273 -1588 c94 -72 84 -186 -40 -428 -58
-116 -94 -151 -166 -164 -86 -16 -141 18 -288 180 -120 133 -150 205 -114 274
16 33 33 41 81 41 49 0 97 -22 168 -79 l62 -50 23 72 c29 91 64 152 99 172 43
24 132 15 175 -18z m-3544 -541 c154 -32 276 -118 333 -233 27 -55 33 -80 36
-153 8 -164 -30 -281 -361 -1108 -122 -308 -144 -355 -166 -364 -28 -11 -123
-6 -258 14 l-81 12 -1 160 c-1 89 -4 177 -7 196 -3 19 -7 100 -9 180 -7 242
-15 377 -34 557 -36 349 -12 500 98 625 94 106 272 151 450 114z m4339 -378
c68 -17 115 -72 193 -224 37 -71 173 -338 304 -594 130 -256 302 -591 380
-745 193 -377 208 -419 178 -519 -50 -169 -245 -310 -893 -649 -212 -110 -494
-269 -630 -355 -74 -46 -207 -130 -295 -185 -223 -141 -429 -245 -648 -327
-148 -55 -188 -63 -254 -50 -74 16 -142 82 -233 228 -38 62 -70 114 -70 117 0
3 -26 49 -142 253 -10 17 -28 49 -40 70 -12 20 -38 66 -58 102 -254 447 -623
1076 -692 1178 -60 90 -60 120 2 180 22 20 274 176 560 345 l521 308 40 -35
c73 -67 132 -49 329 99 63 47 153 104 200 127 129 61 158 96 164 194 l3 55
174 80 c96 44 206 95 244 112 39 17 124 58 190 90 204 100 344 155 403 156 13
1 44 -4 70 -11z m-1208 -390 c20 -22 28 -87 14 -122 -3 -9 -50 -39 -103 -66
-53 -27 -150 -91 -216 -140 -66 -50 -133 -98 -149 -106 l-28 -16 -68 71 -68
72 32 24 c52 40 541 305 563 305 1 0 11 -10 23 -22z"/>
<path d="M13930 16601 l0 -111 113 0 c91 0 118 3 142 19 55 33 63 127 16 175
-19 19 -35 21 -146 24 l-125 4 0 -111z"/>
<path d="M13930 16315 l0 -115 124 0 c69 0 136 4 150 10 37 14 59 53 58 105
-2 97 -35 115 -207 115 l-125 0 0 -115z"/>
<path d="M15092 16533 c-28 -71 -54 -135 -57 -143 -4 -13 11 -15 106 -13 61 1
114 4 116 7 7 7 -101 276 -110 276 -2 0 -26 -57 -55 -127z"/>
<path d="M15459 15840 c-104 -55 -146 -202 -93 -329 33 -79 101 -121 194 -121
134 0 213 85 214 230 0 113 -35 179 -116 221 -50 26 -150 25 -199 -1z"/>
<path d="M16090 15844 c-82 -35 -123 -106 -124 -209 -1 -115 35 -185 117 -227
34 -17 54 -20 114 -16 63 4 79 10 111 35 59 46 87 113 86 203 -1 111 -42 179
-126 215 -47 19 -132 19 -178 -1z"/>
<path d="M14560 15819 c0 -3 -22 -60 -50 -128 -27 -68 -50 -127 -50 -132 0 -5
47 -9 105 -9 58 0 105 4 105 9 0 9 -99 253 -106 260 -2 2 -4 2 -4 0z"/>
<path d="M15155 13843 c-213 -29 -409 -128 -556 -280 -89 -92 -134 -158 -215
-313 -120 -229 -148 -332 -148 -545 1 -131 4 -162 27 -248 48 -174 128 -307
263 -438 217 -208 479 -309 768 -296 261 12 470 104 668 295 147 142 251 316
306 512 24 85 27 112 27 260 0 184 -16 271 -80 421 -103 244 -326 467 -569
568 -136 56 -346 84 -491 64z m267 -127 c479 -94 821 -580 744 -1058 -51 -317
-254 -593 -541 -734 -131 -64 -224 -86 -370 -87 -171 0 -304 33 -452 113 -378
204 -548 611 -428 1025 28 95 112 254 189 355 23 30 52 72 65 92 50 83 193
190 325 244 153 62 316 79 468 50z"/>
<path d="M16590 11619 c-151 -20 -322 -86 -445 -174 -82 -59 -192 -175 -250
-265 -27 -41 -68 -105 -92 -143 -135 -206 -199 -463 -173 -694 27 -246 116
-433 289 -603 104 -103 180 -157 315 -220 168 -79 241 -95 446 -95 139 0 190
4 250 19 317 80 608 325 752 633 67 143 91 253 94 433 3 166 -7 235 -51 370
-71 214 -217 418 -394 549 -206 153 -481 224 -741 190z m340 -139 c135 -33
284 -114 401 -218 93 -82 207 -256 252 -382 54 -153 61 -195 61 -360 0 -140
-3 -164 -28 -244 -37 -121 -112 -264 -191 -363 -78 -97 -130 -144 -241 -218
-160 -107 -315 -155 -501 -155 -167 0 -297 32 -443 108 -443 231 -615 699
-432 1174 17 43 43 95 59 115 16 21 45 64 66 96 20 31 59 81 85 111 26 30 65
76 86 102 72 85 215 176 346 219 144 47 320 53 480 15z"/>
<path d="M16404 9736 c-21 -54 41 -100 135 -99 69 1 98 14 107 48 12 47 0 55
-74 55 -38 0 -90 3 -115 6 -38 5 -48 4 -53 -10z"/>
<path d="M14276 8897 c-34 -44 -46 -125 -53 -367 -8 -282 14 -479 58 -505 30
-19 34 19 40 338 4 177 12 358 19 401 10 69 9 85 -5 123 -9 23 -21 43 -25 43
-5 0 -20 -15 -34 -33z"/>
<path d="M13140 8159 c0 -37 46 -156 92 -236 81 -140 138 -193 146 -136 6 39
-113 257 -182 333 -44 50 -56 58 -56 39z"/>
<path d="M13944 8014 c-8 -83 -1 -164 31 -341 25 -136 46 -188 76 -188 23 0
22 43 -6 237 -23 166 -65 341 -85 353 -5 3 -12 -25 -16 -61z"/>
<path d="M15369 7952 c-9 -10 -89 -72 -178 -136 -217 -159 -253 -196 -186
-196 31 0 174 74 282 146 105 70 141 127 117 188 -8 21 -16 20 -35 -2z"/>
<path d="M15390 7476 c-19 -7 -66 -34 -105 -60 -38 -26 -126 -75 -195 -107
-69 -33 -141 -68 -160 -77 -42 -21 -46 -46 -7 -50 47 -6 187 37 292 89 145 71
222 134 240 197 8 26 -10 28 -65 8z"/>
<path d="M18060 6244 c-239 -81 -515 -255 -535 -337 -11 -42 2 -91 40 -145 18
-27 59 -101 91 -163 82 -165 531 -1005 567 -1062 16 -26 46 -60 65 -75 31 -23
45 -27 101 -26 55 0 85 9 181 48 250 104 432 209 471 272 45 73 32 117 -126
434 -132 267 -241 455 -438 760 -214 331 -244 353 -417 294z m142 -94 c48 -37
314 -451 461 -715 122 -222 287 -560 287 -592 0 -13 -10 -34 -22 -46 -26 -25
-170 -109 -263 -151 -33 -16 -73 -35 -90 -43 -64 -32 -157 -63 -188 -63 -22 0
-41 8 -54 23 -11 12 -102 173 -201 357 -98 184 -191 355 -204 380 -117 213
-188 353 -202 396 -9 28 -37 77 -61 109 -36 46 -43 60 -34 76 25 48 312 214
459 266 79 28 81 28 112 3z"/>
<path d="M17270 5780 c-151 -37 -483 -216 -554 -300 -49 -59 -47 -123 6 -198
19 -26 50 -81 69 -122 20 -41 143 -275 273 -520 131 -245 256 -479 278 -520
97 -183 163 -205 367 -124 225 90 443 209 484 265 30 41 33 109 9 177 -48 130
-270 554 -415 791 -118 194 -292 455 -331 499 -51 56 -105 71 -186 52z m97
-112 c18 -14 248 -362 320 -483 154 -257 388 -708 414 -796 10 -32 9 -42 -4
-63 -30 -46 -412 -241 -518 -265 -68 -15 -87 2 -167 153 -38 72 -145 271 -237
441 -206 380 -204 377 -242 445 -17 30 -36 73 -42 95 -11 40 -32 79 -85 154
l-29 42 26 24 c49 46 198 137 320 195 167 80 205 89 244 58z"/>
<path d="M16347 5270 c-175 -65 -420 -207 -475 -276 -15 -18 -30 -44 -33 -56
-9 -37 10 -98 45 -147 18 -25 68 -116 110 -201 43 -85 82 -159 86 -165 4 -5
35 -64 70 -130 35 -66 109 -205 165 -310 56 -104 126 -235 155 -290 92 -172
124 -209 197 -226 64 -14 206 37 461 164 257 129 294 193 212 372 -137 302
-342 670 -557 1000 -130 199 -179 262 -214 281 -45 23 -134 17 -222 -16z m187
-97 c51 -58 300 -440 376 -578 207 -373 345 -645 356 -702 6 -28 2 -37 -26
-63 -62 -58 -432 -239 -522 -255 -32 -6 -40 -3 -65 23 -15 17 -39 52 -53 79
-22 43 -126 237 -240 448 -24 44 -60 112 -81 150 -20 39 -77 142 -125 230 -48
88 -98 188 -110 223 -24 66 -48 104 -83 136 -12 11 -21 27 -21 36 0 35 174
150 351 234 124 58 138 63 186 65 24 1 39 -6 57 -26z"/>
<path d="M29330 17724 c0 -12 5 -14 18 -9 54 23 83 10 154 -70 82 -91 212
-276 254 -362 39 -78 47 -103 51 -170 l6 -79 -62 -38 c-73 -45 -168 -74 -271
-82 l-76 -7 -37 44 -37 43 0 -7367 0 -7367 90 0 c64 0 92 4 95 13 2 6 36 111
75 232 39 121 84 261 99 310 32 98 186 576 286 885 102 314 244 756 282 875
19 61 95 292 168 515 138 417 161 492 211 668 34 120 16 115 184 50 189 -72
304 -110 350 -115 25 -3 47 -7 50 -10 5 -5 -410 -1247 -534 -1598 -37 -104
-92 -262 -123 -350 -85 -246 -297 -806 -437 -1154 -69 -172 -126 -315 -126
-317 0 -2 1312 -4 2915 -4 2005 0 2915 3 2915 10 0 6 -27 59 -61 118 -33 59
-105 197 -158 307 -137 279 -154 315 -147 322 3 4 6 2 6 -3 0 -28 297 -24 439
6 318 65 625 220 811 409 53 53 98 110 119 149 18 35 34 62 36 60 8 -7 175
-397 175 -407 0 -6 3 -11 8 -11 4 0 7 3092 7 6870 0 5209 -3 6864 -12 6843 -6
-16 -35 -86 -64 -158 -29 -71 -80 -187 -113 -256 l-61 -125 -40 46 c-96 112
-312 241 -482 287 -71 19 -123 27 -190 27 -109 1 -107 -22 -16 191 81 189 242
515 327 664 37 63 66 118 66 123 0 4 -1609 8 -3575 8 -3286 0 -3575 -1 -3575
-16z m488 -846 c11 -13 38 -72 60 -133 22 -60 129 -353 237 -650 109 -297 210
-576 225 -620 16 -44 49 -138 74 -209 50 -139 53 -156 32 -156 -8 0 -63 -21
-123 -46 -59 -25 -113 -48 -119 -50 -6 -3 -38 62 -77 158 -182 452 -413 1040
-572 1458 -34 91 -66 174 -70 184 -8 17 -5 19 34 13 50 -6 171 20 227 51 49
26 47 26 72 0z m3577 -107 c38 -17 408 -384 1131 -1121 272 -278 292 -313 257
-449 -36 -137 -135 -260 -572 -711 -328 -338 -358 -371 -587 -641 -204 -242
-340 -382 -477 -492 -182 -146 -220 -166 -300 -161 -80 6 -157 62 -417 305
-526 491 -1134 1038 -1185 1066 -27 16 -28 82 -2 126 12 20 106 130 208 244
103 114 265 296 361 403 182 204 183 204 244 180 65 -27 116 9 220 157 37 54
104 134 148 177 104 106 122 151 93 236 -12 33 -11 36 14 55 25 20 64 55 419
384 273 252 341 290 445 242z m2869 -150 c104 -28 245 -96 331 -160 74 -56
165 -161 165 -190 0 -54 -68 -77 -176 -60 -99 16 -99 15 -76 82 19 57 15 87
-12 87 -8 0 -17 16 -21 36 -4 23 -21 51 -49 79 -90 89 -179 66 -246 -65 l-20
-39 -82 57 c-97 68 -138 107 -138 132 0 10 15 30 32 45 31 27 36 27 123 22 49
-3 125 -15 169 -26z m114 -214 c16 -17 25 -39 29 -78 5 -52 2 -61 -71 -212
-42 -86 -76 -159 -76 -161 0 -2 -22 -50 -49 -107 -65 -140 -161 -349 -161
-353 0 -3 -63 -140 -105 -231 -21 -43 -336 -744 -412 -915 -35 -80 -74 -155
-85 -167 -42 -45 -87 -21 -103 54 -9 43 18 172 62 298 75 215 354 816 710
1532 179 359 187 373 211 368 14 -2 37 -15 50 -28z m-3991 -285 c15 -10 43
-75 43 -100 0 -11 -22 -40 -50 -66 -60 -56 -124 -134 -205 -250 -33 -47 -68
-89 -78 -92 -13 -4 -37 7 -71 30 -29 20 -60 36 -70 36 -16 0 -16 2 1 30 22 38
394 421 408 420 6 0 15 -4 22 -8z m-1787 -1124 c76 -76 150 -307 150 -467 0
-144 -35 -277 -79 -300 -24 -13 -109 12 -131 38 -3 3 -31 26 -63 50 -78 58
-183 164 -222 226 -63 100 -73 147 -59 284 l7 62 51 26 c62 32 275 112 297
113 9 0 31 -15 49 -32z m4710 -913 c7 -8 19 -15 27 -15 19 0 26 -22 14 -52 -9
-24 -7 -26 32 -37 58 -17 117 -59 117 -84 0 -18 -4 -19 -72 -13 -40 4 -87 9
-105 12 -28 5 -33 2 -48 -26 -19 -38 -14 -44 45 -54 49 -8 90 -41 90 -73 0
-22 -3 -24 -22 -18 -47 14 -104 24 -140 25 -34 0 -40 -4 -58 -41 -25 -49 -22
-64 17 -72 43 -8 83 -44 83 -74 0 -22 -3 -24 -22 -18 -53 16 -112 24 -132 19
-30 -7 -84 -113 -64 -125 11 -7 46 -13 68 -11 3 0 17 -8 30 -18 19 -14 22 -22
14 -30 -15 -15 -35 -18 -106 -19 l-58 -1 -25 -50 c-14 -27 -25 -53 -25 -58 0
-5 17 -14 39 -20 42 -13 66 -35 56 -52 -3 -5 -35 -10 -71 -10 l-65 0 -40 -87
c-22 -48 -37 -89 -32 -90 31 -11 73 -46 73 -61 0 -24 -10 -34 -24 -23 -6 5
-27 12 -47 16 l-36 7 -32 -67 c-17 -37 -31 -70 -31 -74 0 -3 10 -11 23 -16 12
-6 23 -19 25 -30 2 -18 -2 -20 -36 -17 -39 4 -39 4 -61 -52 l-23 -55 21 -27
c29 -37 26 -46 -13 -39 -31 6 -34 4 -45 -26 -6 -17 -11 -33 -11 -34 0 -2 9 -5
21 -8 31 -8 21 -41 -14 -45 -17 -2 -34 -14 -45 -30 -23 -36 -43 -51 -68 -52
-25 0 -30 9 -39 74 -5 32 -4 46 4 46 7 0 18 15 26 33 l13 32 -36 5 c-31 4 -37
9 -40 32 -4 34 29 58 80 58 32 0 40 4 49 26 5 15 8 29 5 31 -7 8 -46 -7 -46
-18 0 -14 -27 -11 -44 7 -20 19 -20 48 -2 67 8 8 42 20 76 27 62 13 62 13 86
68 13 30 23 57 21 59 -9 8 -37 -10 -42 -28 -9 -26 -19 -24 -49 12 -20 24 -24
34 -16 49 16 29 49 48 106 61 51 12 53 14 77 68 14 31 23 57 22 59 -1 1 -22
-4 -46 -12 -33 -12 -45 -12 -51 -3 -10 15 -10 40 -1 62 7 20 98 65 130 65 22
0 42 27 57 77 7 20 5 21 -28 12 -44 -12 -87 -34 -96 -50 -20 -31 -49 46 -35
90 10 32 78 62 155 68 65 6 68 7 84 41 9 19 15 37 12 39 -3 3 -20 -4 -39 -16
-44 -27 -65 -27 -78 2 -24 53 44 113 149 133 23 5 40 16 53 38 35 58 22 60
-76 11 -64 -31 -72 -33 -92 -19 -31 20 -30 59 2 80 34 22 184 74 215 74 17 0
30 9 42 30 16 29 16 30 -2 30 -34 0 -146 -29 -194 -51 -58 -25 -79 -15 -74 40
2 27 11 40 36 57 37 25 189 64 249 64 46 0 59 10 96 68 30 46 38 50 57 27z
m-4728 -955 c20 -6 48 -24 62 -41 53 -63 26 -238 -57 -361 -73 -109 -181 -152
-283 -113 -62 23 -95 54 -145 133 -23 37 -55 82 -72 101 -25 29 -28 40 -24 74
15 111 151 127 258 30 l37 -34 11 51 c19 88 59 142 117 160 40 11 53 11 96 0z
m5558 -23 c47 -23 62 -70 58 -187 -2 -83 0 -104 10 -102 111 23 162 25 207 7
39 -15 50 -25 67 -61 19 -44 19 -44 0 -88 -16 -35 -30 -48 -74 -70 -113 -55
-312 -75 -375 -36 -70 43 -87 131 -63 345 12 105 33 169 63 190 26 18 73 19
107 2z m-1152 -1489 c16 -16 15 -53 0 -65 -9 -7 -624 -8 -1773 -4 l-1760 6 0
30 0 30 1485 5 c817 3 1609 6 1761 8 203 1 278 -1 287 -10z m-3030 -312 c50
-26 75 -62 80 -116 5 -59 -10 -101 -49 -135 -26 -21 -27 -24 -11 -29 32 -11
83 -72 93 -112 6 -28 4 -54 -6 -91 -17 -59 -55 -94 -120 -112 -56 -15 -298
-14 -313 1 -9 9 -12 90 -12 303 0 161 3 295 7 298 3 4 73 7 155 7 109 0 156
-4 176 -14z m607 -11 c0 -19 -8 -20 -157 -23 l-158 -3 0 -112 0 -112 131 0
c115 0 133 -2 143 -18 18 -30 -10 -37 -146 -37 l-128 0 0 -115 0 -115 143 0
c107 0 148 -4 162 -14 16 -12 17 -16 6 -30 -11 -14 -39 -16 -180 -16 -117 0
-171 4 -179 12 -9 9 -12 88 -12 294 0 155 3 290 6 298 6 14 29 16 188 14 173
-3 181 -4 181 -23z m392 -65 c19 -47 40 -98 48 -115 34 -76 155 -379 155 -390
0 -16 -30 -29 -41 -18 -4 4 -23 44 -41 88 l-34 80 -145 3 -146 3 -33 -86 c-28
-73 -36 -85 -56 -85 -14 0 -24 6 -24 14 0 13 44 122 175 436 24 58 49 118 54
133 8 21 17 28 33 25 17 -2 29 -22 55 -88z m353 71 c6 -12 10 -101 10 -221 0
-214 3 -232 52 -277 32 -30 75 -45 125 -44 47 0 75 12 111 45 53 47 57 66 62
296 5 207 6 215 25 215 19 0 20 -8 23 -215 3 -248 -2 -274 -72 -338 -116 -107
-300 -71 -367 73 -16 35 -19 67 -19 256 0 119 3 219 7 222 12 13 32 7 43 -12z
m995 -6 c0 -19 -8 -20 -102 -23 l-103 -3 0 -272 c0 -286 -3 -307 -42 -286 -17
9 -18 28 -18 284 l0 274 -97 3 c-93 3 -98 4 -101 26 l-3 22 233 -2 c225 -3
233 -4 233 -23z m194 -105 c52 -72 98 -127 101 -123 4 5 46 63 94 131 60 84
93 122 104 120 38 -7 21 -45 -78 -178 l-100 -134 0 -147 c0 -120 -3 -148 -15
-153 -8 -3 -21 2 -30 10 -12 12 -15 43 -15 157 l0 142 -56 75 c-118 159 -146
201 -140 215 14 36 44 10 135 -115z m-2604 -721 c51 -14 105 -55 105 -79 0
-31 -18 -33 -51 -6 -52 44 -125 56 -186 31 -46 -19 -62 -41 -63 -83 0 -50 39
-82 146 -120 115 -41 155 -78 162 -151 9 -97 -66 -164 -184 -165 -66 0 -153
34 -189 74 -17 19 -18 22 -2 37 15 16 18 15 39 -4 31 -30 107 -63 143 -63 45
0 100 18 119 39 9 10 19 35 23 54 5 32 1 41 -28 70 -20 20 -57 41 -89 52 -124
40 -167 70 -187 130 -40 121 96 224 242 184z m1524 -20 c123 -53 186 -203 146
-347 -32 -114 -103 -180 -217 -203 -110 -22 -229 38 -280 143 -88 176 -3 383
176 429 46 12 118 3 175 -22z m631 -6 c95 -48 144 -136 144 -258 0 -119 -47
-204 -143 -258 -110 -62 -260 -30 -338 71 -55 73 -75 185 -49 275 50 174 225
250 386 170z m-1710 5 c4 -13 52 -129 106 -258 102 -248 112 -285 79 -285 -15
0 -26 17 -50 78 l-30 77 -134 -2 -134 -3 -31 -75 c-31 -73 -57 -98 -69 -66 -3
8 30 102 74 208 44 106 92 222 105 257 13 36 29 70 35 78 17 20 38 16 49 -9z
m358 -241 l2 -257 133 0 c137 0 164 -6 154 -34 -6 -14 -27 -16 -169 -14 l-163
3 -3 270 c-1 148 0 276 3 283 3 7 13 12 22 10 17 -3 18 -25 21 -261z m1729
156 c181 -249 267 -362 271 -358 2 2 4 102 3 222 -1 120 3 224 8 232 5 8 16
11 25 8 15 -6 16 -36 14 -284 -3 -269 -4 -278 -23 -278 -14 0 -69 67 -192 233
l-173 233 -2 -233 c-3 -225 -4 -233 -23 -233 -19 0 -20 8 -23 270 -1 148 0
275 3 282 11 30 39 7 112 -94z m502 -699 c54 -6 62 -10 67 -31 15 -57 136 -53
-1771 -53 -1912 0 -1786 -4 -1771 55 l6 25 1573 3 c864 1 1631 3 1703 5 72 1
159 -1 193 -4z m-3160 -973 c51 -11 118 -28 147 -37 51 -16 53 -17 47 -48 -3
-17 -18 -74 -34 -126 -33 -107 -37 -155 -13 -164 37 -14 86 85 114 232 7 34
16 62 21 62 17 0 195 -82 232 -106 37 -24 39 -28 32 -62 -9 -49 -62 -202 -115
-332 -50 -124 -71 -190 -64 -202 10 -15 40 -8 61 15 57 62 143 252 184 407 12
47 26 89 30 94 9 11 128 -73 186 -130 74 -75 98 -155 82 -273 -24 -165 -180
-511 -323 -714 -172 -244 -294 -387 -446 -524 l-104 -95 -45 6 c-24 3 -63 18
-87 33 l-43 28 26 27 c14 15 31 24 37 21 6 -3 8 -3 4 2 -4 4 7 27 26 49 51 63
130 178 144 209 7 17 17 25 24 21 7 -4 8 -3 4 4 -3 6 16 62 44 124 68 151 81
200 71 288 -8 75 -17 95 -32 67 -6 -9 -21 -29 -35 -44 -37 -40 -58 -78 -107
-193 -25 -58 -62 -134 -82 -170 -43 -76 -157 -263 -165 -270 -3 -3 -15 -23
-27 -45 -12 -23 -27 -38 -35 -36 -7 3 -49 17 -93 32 -44 14 -100 30 -124 34
-24 4 -60 14 -79 22 l-35 14 6 162 c3 89 13 202 22 251 19 104 17 145 -8 160
-60 36 -135 -197 -139 -427 -1 -53 -4 -97 -8 -97 -3 0 -26 6 -51 14 -24 8 -64
20 -89 27 l-45 12 -3 266 c-4 301 7 480 48 761 44 300 91 437 187 538 46 48
136 103 195 117 l28 7 -31 -67 c-38 -84 -71 -210 -103 -390 -74 -419 -83 -513
-52 -560 16 -24 18 -24 45 -10 53 27 77 98 111 333 52 354 65 407 138 596 l47
119 90 -7 c49 -3 132 -15 184 -25z m2613 -771 c109 -77 302 -264 380 -370 128
-174 208 -339 569 -1180 44 -102 95 -218 114 -258 19 -40 35 -74 35 -77 0 -9
-120 -85 -211 -134 -109 -58 -289 -132 -369 -151 -53 -13 -194 -20 -204 -9 -3
2 -45 122 -95 264 -90 264 -133 381 -221 605 -256 653 -299 820 -287 1105 6
126 14 182 48 308 l10 38 69 -38 c38 -21 111 -67 162 -103z m-3395 -1085 c56
-24 133 -52 170 -61 37 -10 124 -43 193 -74 69 -31 159 -69 200 -85 41 -16 92
-39 112 -53 26 -17 47 -23 68 -20 16 3 30 1 30 -4 0 -28 -169 -334 -278 -503
-98 -153 -128 -186 -158 -179 -18 5 -34 0 -55 -15 -25 -18 -34 -20 -71 -12
-77 17 -517 184 -522 198 -3 7 -1 37 4 65 5 29 21 127 36 218 34 217 82 456
100 500 17 39 42 70 58 70 7 0 57 -20 113 -45z m2048 -801 c58 -27 95 -94 123
-225 l17 -76 70 30 c164 70 310 18 290 -102 -19 -115 -110 -184 -324 -245
-106 -31 -213 -16 -269 37 -52 48 -65 92 -75 261 -15 232 3 304 77 325 45 13
54 13 91 -5z m2664 -294 c24 -58 116 -283 206 -500 286 -690 317 -765 321
-780 4 -10 -24 -38 -83 -82 -233 -175 -435 -274 -652 -319 -102 -21 -141 -24
-141 -10 0 5 -38 98 -84 207 -46 110 -150 359 -231 554 -81 195 -162 389 -180
430 -18 41 -54 127 -81 190 -26 63 -56 130 -66 148 -10 18 -18 35 -18 37 0 3
34 5 75 5 99 0 205 23 334 71 188 71 461 229 491 284 14 25 14 25 41 -52 14
-43 45 -125 68 -183z m664 -1432 c35 -63 54 -105 141 -314 64 -154 62 -195
-13 -272 -110 -113 -456 -292 -651 -336 -41 -10 -116 -20 -166 -23 -90 -6 -91
-6 -112 22 -12 15 -22 34 -22 42 0 7 -7 24 -15 36 -25 39 -195 442 -195 463 0
2 20 4 44 4 63 0 225 34 333 69 153 50 388 186 563 326 30 24 56 44 57 45 1 0
17 -28 36 -62z m370 -439 c63 -48 53 -152 -24 -268 -102 -153 -361 -329 -609
-414 -226 -78 -482 -109 -592 -72 -100 35 -149 138 -94 198 l27 29 29 -40 c35
-49 61 -56 195 -54 218 2 434 76 714 241 65 38 143 93 174 121 73 66 117 152
117 227 0 45 3 53 19 53 10 0 30 -9 44 -21z"/>
<path d="M33275 16344 c-55 -29 -138 -98 -238 -198 -148 -151 -203 -245 -181
-309 10 -25 929 -933 989 -975 46 -33 99 -42 152 -24 78 25 376 293 442 397
42 66 42 114 0 180 -41 65 -449 471 -609 607 -195 166 -362 298 -402 319 -45
23 -112 24 -153 3z m206 -163 c217 -169 415 -346 628 -560 117 -119 225 -233
238 -253 23 -34 24 -41 13 -68 -17 -41 -317 -330 -373 -360 -44 -24 -44 -24
-75 -4 -16 10 -151 136 -298 279 -148 143 -307 296 -352 340 -114 109 -161
159 -188 198 -12 19 -46 49 -73 67 -36 22 -51 39 -51 54 1 67 334 396 401 396
10 0 68 -40 130 -89z"/>
<path d="M32691 15705 c-84 -37 -343 -287 -400 -387 -52 -90 -36 -156 53 -217
25 -18 46 -36 46 -40 0 -12 817 -808 863 -842 94 -68 162 -45 347 118 196 172
280 275 280 344 -1 47 -39 106 -144 219 -248 267 -776 734 -905 800 -47 23
-93 25 -140 5z m146 -127 c118 -89 273 -219 408 -339 159 -142 513 -503 526
-535 5 -14 5 -34 0 -47 -12 -32 -246 -264 -328 -326 -74 -55 -94 -60 -134 -33
-15 9 -172 159 -350 332 -416 406 -448 438 -482 483 -16 21 -47 49 -70 64 -54
34 -58 41 -41 74 54 106 336 379 390 379 7 0 43 -23 81 -52z"/>
<path d="M32117 15066 c-58 -21 -111 -62 -225 -171 -144 -138 -214 -230 -226
-301 -6 -29 35 -114 55 -114 5 0 150 -138 322 -307 647 -638 641 -633 711
-633 60 0 112 31 237 139 280 242 332 331 264 447 -36 62 -429 454 -605 605
-302 259 -428 350 -480 348 -8 0 -32 -6 -53 -13z m173 -167 c259 -201 582
-494 765 -695 116 -127 131 -150 121 -187 -6 -26 -191 -218 -286 -298 -70 -59
-127 -90 -150 -81 -10 4 -135 120 -277 257 -142 138 -316 306 -387 375 -71 69
-135 132 -142 140 -28 34 -123 126 -149 146 l-28 20 26 45 c37 61 138 175 226
255 84 75 127 104 156 104 11 0 68 -37 125 -81z"/>
<path d="M31680 11160 l0 -110 110 0 c157 0 190 21 190 121 0 31 -7 47 -29 70
-29 29 -30 29 -150 29 l-121 0 0 -110z"/>
<path d="M31680 10874 l0 -116 141 4 c140 3 141 3 165 31 18 22 24 40 24 78 0
102 -30 119 -205 119 l-125 0 0 -116z"/>
<path d="M32838 11083 c-32 -75 -56 -138 -55 -139 5 -6 218 -6 224 -1 7 7
-101 277 -110 277 -2 0 -28 -62 -59 -137z"/>
<path d="M33200 10397 c-30 -15 -55 -40 -75 -72 -28 -45 -30 -56 -30 -140 0
-84 2 -95 30 -140 81 -131 279 -131 360 0 25 41 31 61 34 127 3 69 0 85 -23
132 -38 78 -88 110 -180 114 -60 3 -78 0 -116 -21z"/>
<path d="M33820 10397 c-30 -15 -55 -40 -75 -72 -28 -45 -30 -56 -30 -140 0
-84 2 -95 30 -140 81 -131 279 -131 360 0 25 41 31 61 34 127 3 69 0 85 -23
132 -38 78 -88 110 -180 114 -60 3 -78 0 -116 -21z"/>
<path d="M32287 10333 c-38 -88 -87 -217 -83 -220 2 -2 51 -2 109 -1 l105 3
-51 128 c-28 70 -53 127 -57 127 -4 0 -14 -17 -23 -37z"/>
<path d="M31503 8162 c-22 -14 -42 -72 -83 -237 -33 -135 -41 -181 -37 -224 8
-76 19 -81 59 -28 29 38 38 64 62 178 15 74 32 153 37 176 15 69 12 121 -9
132 -10 5 -23 7 -29 3z"/>
<path d="M32372 7961 c-45 -47 -171 -291 -179 -346 -6 -47 11 -67 54 -67 40 0
73 46 131 182 60 141 82 230 63 254 -19 23 -27 20 -69 -23z"/>
<path d="M31706 7788 c-19 -40 -49 -120 -66 -178 -18 -58 -57 -161 -87 -230
-65 -146 -76 -194 -45 -202 54 -15 153 170 228 426 31 106 34 129 29 189 -4
37 -11 67 -16 67 -5 0 -25 -33 -43 -72z"/>
<path d="M34709 7448 c-8 -7 -27 -30 -42 -50 -83 -114 -251 -163 -415 -122
-104 26 -115 -16 -16 -66 43 -22 62 -25 159 -25 98 0 116 3 167 27 110 51 213
159 206 215 -3 32 -33 42 -59 21z"/>
<path d="M4370 17094 c-143 -45 -142 -44 -702 -464 -216 -163 -466 -349 -555
-415 l-162 -120 -1 -82 0 -82 298 225 c860 650 1022 770 1077 796 137 64 280
11 456 -169 322 -329 762 -900 1047 -1358 164 -264 198 -357 173 -477 -16 -80
-52 -146 -149 -278 -121 -166 -162 -263 -162 -387 l0 -72 -37 -6 c-155 -23
-241 -56 -353 -132 -132 -89 -279 -232 -427 -414 l-46 -56 -46 20 c-39 17 -58
19 -146 14 -81 -5 -131 -16 -265 -57 -201 -62 -255 -72 -323 -60 -150 28 -249
120 -487 450 -86 118 -257 353 -380 521 l-225 307 -3 -110 -3 -109 167 -227
c494 -671 534 -723 611 -799 53 -53 94 -82 155 -112 142 -70 254 -67 498 13
172 56 223 66 299 61 82 -6 101 -17 101 -59 0 -19 6 -47 13 -63 33 -79 396
-627 610 -923 163 -224 427 -569 473 -615 95 -99 198 -104 408 -24 292 112
565 314 733 543 89 120 94 174 30 286 -69 122 -368 544 -598 845 -295 387
-478 589 -579 640 -28 14 -50 30 -50 35 0 5 -12 13 -26 16 -26 7 -26 8 -20 68
8 83 64 194 165 331 239 325 241 474 8 860 -189 314 -552 811 -803 1101 -29
32 -94 109 -146 169 -188 218 -324 326 -453 360 -56 14 -143 19 -175 9z m1428
-3046 c68 -34 141 -105 283 -276 252 -303 531 -676 773 -1035 101 -149 126
-193 120 -210 -28 -91 -236 -299 -427 -427 -159 -106 -427 -217 -500 -207 -50
7 -67 23 -202 197 -271 351 -468 627 -729 1023 -227 346 -216 326 -208 364 9
41 185 255 294 358 223 209 444 288 596 213z"/>
<path d="M6726 12604 c-75 -18 -239 -97 -341 -165 -99 -66 -279 -242 -334
-328 -46 -71 -52 -112 -21 -134 37 -26 66 -9 126 72 131 175 319 332 542 450
78 41 108 62 110 77 5 35 -17 43 -82 28z"/>
<path d="M23700 17054 c-226 -85 -371 -169 -542 -317 -127 -109 -310 -339
-355 -445 -24 -56 -19 -132 10 -178 94 -149 646 -762 988 -1099 202 -198 262
-246 391 -309 89 -44 96 -57 78 -156 -14 -79 -42 -141 -137 -309 -96 -168
-123 -247 -123 -358 0 -142 43 -240 197 -448 250 -337 603 -725 1018 -1118
218 -207 296 -270 400 -324 208 -107 374 -80 563 89 44 40 253 233 464 428
211 196 482 446 603 556 320 292 394 377 446 513 29 74 31 194 5 270 -41 119
-105 212 -282 407 -442 488 -1049 1149 -1104 1202 -140 136 -259 194 -400 195
-108 1 -171 -16 -345 -93 -163 -72 -226 -90 -316 -90 -70 0 -79 6 -79 51 0 37
-39 95 -203 299 -377 471 -988 1144 -1093 1206 -44 26 -148 42 -184 28z m126
-136 c34 -27 322 -328 478 -502 222 -246 668 -779 732 -873 33 -48 24 -79 -54
-198 -207 -316 -392 -485 -580 -529 -167 -39 -269 27 -647 415 -370 380 -855
933 -855 975 0 53 133 237 271 374 111 110 236 202 387 283 158 84 213 96 268
55z m2241 -1428 c92 -46 192 -147 763 -778 256 -282 500 -552 544 -600 262
-289 284 -443 94 -660 -35 -39 -200 -199 -368 -354 -168 -155 -408 -379 -535
-498 -518 -487 -570 -530 -654 -549 -90 -20 -222 27 -344 122 -255 198 -819
775 -1116 1141 -269 332 -322 420 -329 546 -5 98 16 160 113 333 42 72 84 156
95 185 30 79 44 190 32 246 -5 25 -7 48 -3 50 3 2 30 9 60 16 225 53 414 215
649 556 l83 121 42 -14 c85 -30 203 -4 422 90 182 79 214 87 307 84 63 -3 89
-10 145 -37z"/>
<path d="M23690 16819 c-99 -193 -273 -380 -495 -532 -85 -58 -121 -89 -123
-105 -16 -107 347 94 516 287 130 148 222 291 222 348 0 26 -27 43 -69 43 -26
0 -34 -7 -51 -41z"/>
<path d="M10405 16538 c-297 -301 -557 -578 -796 -848 -221 -250 -398 -462
-412 -492 -6 -16 -15 -28 -19 -28 -25 0 -174 -120 -286 -229 -117 -115 -138
-132 -175 -138 -29 -4 -81 -33 -179 -99 -310 -210 -461 -329 -635 -497 -129
-125 -205 -225 -256 -335 -27 -58 -31 -80 -35 -172 -5 -121 10 -192 63 -306
50 -110 109 -190 215 -294 195 -192 430 -291 695 -293 241 -1 370 72 473 270
35 68 113 267 327 834 27 70 47 143 51 183 4 44 11 66 20 66 25 0 253 308 296
401 10 19 18 53 19 75 2 33 11 49 64 104 99 104 376 465 700 915 l156 216 -3
89 -3 88 -100 -141 c-131 -184 -523 -720 -603 -822 -97 -125 -193 -258 -205
-282 -15 -33 -22 -29 -42 23 -27 71 -109 186 -177 249 -64 59 -164 115 -207
115 -23 0 -22 2 15 48 219 271 684 780 1082 1183 l243 246 -3 78 -3 78 -280
-285z m-1047 -1463 c128 -38 312 -285 312 -419 0 -18 -16 -59 -39 -98 -33 -56
-209 -317 -230 -341 -4 -4 -22 13 -40 38 -44 61 -154 179 -337 362 l-152 152
117 114 c129 126 193 177 225 177 12 0 30 7 40 15 25 19 40 19 104 0z m-530
-437 c33 -29 61 -56 61 -60 1 -3 -31 -29 -69 -58 -72 -53 -93 -88 -73 -119 14
-22 53 -27 53 -7 0 9 3 16 8 16 4 0 39 25 76 55 l69 55 64 -64 64 -63 -46 -73
c-45 -74 -72 -137 -61 -147 10 -10 54 7 84 32 17 14 42 48 55 75 l25 50 36
-40 c33 -37 35 -41 24 -72 -27 -78 -143 -289 -231 -421 -111 -168 -117 -178
-117 -211 0 -42 39 -34 86 17 99 106 265 353 324 479 l32 68 28 -23 c15 -12
24 -26 20 -32 -12 -15 -81 -191 -161 -409 -70 -191 -122 -329 -142 -376 -5
-14 -11 -32 -13 -40 -2 -8 -26 -61 -53 -116 -80 -160 -166 -224 -327 -239 -75
-7 -211 8 -271 30 -21 7 -33 14 -27 14 15 1 106 126 149 203 27 51 36 76 33
105 -2 32 -6 37 -23 35 -11 -2 -28 -13 -38 -25 -28 -33 -167 -278 -167 -294 0
-19 -13 -17 -86 17 -124 56 -278 185 -355 296 l-31 45 44 37 c86 73 319 295
353 336 36 44 42 61 25 71 -23 14 -88 -33 -269 -195 -146 -131 -195 -169 -202
-159 -16 25 -50 121 -61 173 -8 37 -8 51 1 54 33 11 150 115 165 147 10 20 16
39 13 41 -2 3 -24 0 -47 -5 -29 -6 -57 -24 -87 -53 -40 -38 -44 -40 -38 -18
15 54 54 128 98 185 100 132 384 383 587 518 47 32 103 70 125 87 75 55 199
130 216 130 9 0 44 -24 77 -52z"/>
<path d="M8631 14540 c-24 -22 -48 -37 -54 -33 -5 3 -7 2 -4 -4 7 -11 18 -1
-193 -174 -194 -157 -304 -262 -298 -281 7 -21 46 -21 83 1 18 11 158 117 309
236 l276 217 0 39 c0 38 -1 39 -37 39 -30 -1 -48 -9 -82 -40z"/>
<path d="M8744 14111 c-54 -33 -194 -210 -280 -355 -55 -92 -114 -275 -85
-264 18 7 111 127 176 228 37 58 105 157 151 220 91 127 109 161 91 179 -14
14 -17 14 -53 -8z"/>
<path d="M23200 13044 c-8 -3 -44 -14 -80 -26 -36 -11 -105 -41 -155 -65 -229
-114 -334 -233 -413 -468 -31 -89 -188 -661 -213 -769 -8 -35 -17 -56 -26 -56
-28 0 -73 -31 -88 -60 -8 -16 -15 -51 -15 -77 0 -37 -17 -92 -74 -232 -41
-101 -109 -289 -152 -417 -74 -225 -78 -234 -103 -234 -14 0 -50 -11 -78 -25
-40 -18 -60 -36 -83 -72 -17 -26 -34 -59 -37 -73 -3 -13 -25 -54 -48 -90 -70
-108 -144 -261 -149 -310 -2 -25 -14 -67 -27 -95 -34 -75 -75 -228 -114 -419
-37 -184 -39 -197 -54 -296 -5 -36 -19 -128 -31 -205 -11 -77 -23 -157 -25
-177 -21 -167 -23 -184 -30 -253 -13 -139 -16 -172 -20 -205 -2 -19 -7 -78
-11 -130 -3 -52 -8 -111 -11 -130 -2 -19 -6 -159 -8 -310 -3 -200 0 -303 10
-378 38 -279 128 -478 280 -621 230 -215 492 -258 748 -124 93 49 257 210 354
348 456 647 802 1448 959 2225 32 155 41 238 55 512 l12 217 -26 39 c-15 21
-27 45 -27 53 0 26 -59 117 -96 147 l-36 30 11 49 c11 47 35 226 45 333 38
392 43 556 22 628 -14 45 -16 66 -8 93 5 19 26 90 47 159 47 160 138 530 161
657 13 69 18 147 18 263 0 185 -11 246 -69 359 -44 87 -91 140 -156 176 -47
26 -66 30 -149 32 -52 1 -102 0 -110 -3z m161 -124 c156 -43 238 -296 195
-603 -24 -171 -129 -576 -232 -900 -21 -65 -32 -117 -28 -131 10 -43 -62 -45
-301 -10 -151 23 -296 61 -435 116 -151 59 -166 68 -150 97 6 12 31 101 56
199 114 450 207 768 249 857 66 137 140 207 323 300 141 72 246 96 323 75z
m-1029 -1569 c53 -32 235 -102 343 -133 245 -71 543 -107 643 -79 31 9 32 8
32 -19 0 -70 -32 -419 -51 -550 -40 -288 -58 -339 -130 -380 -41 -23 -55 -25
-195 -27 -295 -5 -531 58 -801 212 -103 58 -163 112 -163 144 0 29 92 328 158
516 55 155 124 334 129 335 1 0 17 -9 35 -19z m-391 -967 c84 -86 320 -214
507 -273 194 -62 287 -76 497 -76 223 0 271 12 346 84 l50 49 30 -41 c52 -71
30 -133 -62 -171 -94 -39 -409 -58 -619 -36 -309 32 -669 160 -811 287 -105
95 -119 224 -33 292 l27 21 17 -51 c10 -27 33 -66 51 -85z m-106 -301 c146
-111 445 -225 715 -274 278 -50 682 -30 834 41 26 13 48 21 51 19 2 -2 0 -60
-5 -128 -7 -122 -8 -126 -37 -152 -47 -41 -134 -53 -383 -53 -160 0 -243 4
-324 18 -362 60 -674 191 -963 407 -127 95 -129 98 -87 182 54 106 50 105 97
41 23 -31 69 -76 102 -101z m-80 -297 c350 -234 744 -364 1165 -382 146 -7
358 7 434 27 21 6 39 9 41 7 1 -2 -8 -55 -21 -118 -122 -588 -349 -1184 -661
-1730 -176 -307 -301 -487 -433 -621 -79 -80 -110 -103 -181 -138 -72 -36 -98
-44 -165 -48 -135 -9 -246 32 -373 137 -137 114 -224 282 -267 520 -25 137
-25 578 1 840 2 19 6 71 10 115 10 130 14 175 25 275 15 131 44 358 55 430 59
376 96 565 142 732 l27 98 30 -25 c17 -14 94 -67 171 -119z"/>
<path d="M22752 12458 c-19 -19 -14 -46 18 -92 38 -56 114 -124 176 -158 102
-55 283 -87 393 -69 88 14 132 60 112 115 -13 31 -41 37 -98 19 -34 -10 -71
-13 -129 -9 -129 9 -236 53 -365 150 -78 59 -88 63 -107 44z"/>
<path d="M24862 11973 c-29 -11 -96 -180 -132 -328 -59 -250 -51 -502 26 -815
58 -232 360 -1305 390 -1383 4 -12 1 -17 -11 -17 -13 0 -16 -6 -12 -22 17 -77
92 -351 123 -448 20 -63 47 -149 59 -190 23 -75 43 -139 131 -415 26 -82 64
-204 84 -270 21 -66 52 -165 70 -220 59 -185 66 -214 52 -235 -29 -47 3 -201
107 -515 16 -49 29 -90 28 -90 -1 0 -20 -10 -42 -21 -28 -16 -48 -37 -68 -75
-27 -50 -29 -59 -23 -131 15 -186 176 -642 403 -1140 126 -277 140 -287 384
-289 293 -2 565 80 1036 313 316 156 330 181 254 463 -92 339 -195 668 -316
1009 -51 145 -53 147 -108 234 -47 73 -84 96 -168 107 l-55 7 -26 76 c-84 250
-125 353 -161 409 -22 34 -48 65 -57 68 -17 5 -71 161 -230 665 -34 107 -68
213 -75 235 -34 96 -135 428 -155 505 -25 95 -81 216 -112 243 -11 9 -30 17
-42 17 -18 0 -25 13 -47 83 -15 45 -81 242 -148 437 -67 195 -143 416 -168
490 -137 407 -248 618 -448 850 -84 98 -234 228 -353 308 -130 88 -155 99
-190 85z m158 -212 c245 -173 466 -444 583 -716 47 -109 141 -372 267 -750 52
-154 120 -356 152 -450 32 -93 59 -174 60 -180 5 -16 -254 -141 -371 -179
-169 -56 -230 -69 -326 -69 -111 -1 -131 8 -140 65 -8 49 -66 288 -95 393 -11
39 -35 126 -54 195 -19 69 -63 226 -99 350 -156 536 -182 664 -181 890 0 114
6 190 17 245 21 99 78 276 89 273 4 -2 48 -32 98 -67z m1276 -2461 c35 -118
82 -271 104 -340 21 -69 80 -255 130 -415 116 -368 166 -526 175 -546 13 -34
-331 -226 -510 -284 -110 -36 -248 -63 -336 -67 l-74 -3 -32 95 c-18 52 -60
183 -93 290 -34 107 -70 220 -80 250 -10 30 -41 129 -70 220 -28 91 -97 305
-153 475 -56 171 -103 315 -105 321 -2 8 27 10 105 7 129 -7 219 9 398 68 152
51 396 169 427 208 l23 28 13 -46 c7 -25 42 -143 78 -261z m530 -1467 c32 -72
140 -399 149 -453 4 -22 2 -55 -5 -74 -12 -38 -90 -112 -147 -142 -21 -10 -54
-28 -73 -40 -67 -40 -306 -132 -410 -159 -122 -31 -301 -44 -366 -26 l-42 11
-61 178 c-33 97 -75 222 -91 277 -17 55 -33 108 -36 118 -5 15 -1 17 33 11 60
-9 251 14 376 45 136 35 313 113 473 209 65 39 128 78 139 86 11 9 23 16 28
16 4 0 19 -26 33 -57z m342 -473 c2 0 10 -16 18 -36 33 -79 -2 -171 -105 -277
-193 -200 -523 -341 -884 -378 -246 -25 -393 14 -437 115 -23 51 -17 86 20
121 l28 27 20 -38 c11 -22 30 -45 41 -51 63 -39 309 -41 471 -4 266 60 612
228 695 336 35 47 65 125 65 169 0 34 0 34 32 25 18 -5 34 -9 36 -9z m227
-575 c85 -266 86 -268 171 -565 69 -244 75 -289 44 -320 -20 -20 -282 -151
-465 -232 -229 -102 -445 -161 -647 -179 -159 -13 -206 -8 -242 29 -27 28
-164 318 -264 562 -63 155 -200 514 -197 518 1 1 18 -4 37 -13 20 -8 78 -19
129 -26 449 -55 1103 196 1287 494 l35 58 19 -48 c10 -26 52 -151 93 -278z"/>
<path d="M25385 11119 c-104 -106 -252 -145 -395 -103 -30 8 -70 18 -88 21
-31 5 -33 3 -30 -18 4 -33 71 -76 148 -95 108 -27 232 -8 325 51 56 36 145
127 145 149 0 62 -42 60 -105 -5z"/>
<path d="M5307 10663 c-4 -3 -7 -141 -7 -305 l0 -299 173 3 c173 3 174 3 211
31 90 69 80 219 -18 273 -36 20 -37 22 -17 29 54 17 81 138 45 206 -27 54 -79
69 -240 69 -77 0 -144 -3 -147 -7z m325 -75 c27 -29 30 -37 25 -82 -3 -40 -11
-55 -36 -78 -31 -27 -34 -28 -151 -28 l-120 0 0 103 c0 57 3 107 7 110 3 4 60
7 126 7 l119 0 30 -32z m1 -258 c75 -37 76 -170 1 -210 -19 -11 -61 -15 -153
-15 l-126 0 -3 109 c-1 61 0 116 3 124 7 19 236 12 278 -8z"/>
<path d="M5880 10365 l0 -305 183 2 c154 3 182 5 182 18 0 13 -25 15 -157 18
l-158 3 0 124 0 124 138 3 c114 3 137 6 137 18 0 12 -23 15 -137 18 l-138 3 0
114 0 114 158 3 c149 3 157 4 157 23 0 19 -8 20 -182 23 l-183 2 0 -305z"/>
<path d="M6552 10653 c-26 -49 -232 -562 -232 -576 0 -10 8 -17 20 -17 11 0
20 1 20 3 0 1 16 40 34 87 l34 85 144 3 144 3 36 -88 c28 -67 41 -89 57 -91
15 -3 21 2 21 16 0 17 -114 302 -208 522 -29 67 -53 85 -70 53z m82 -217 c31
-74 56 -139 56 -145 0 -7 -39 -11 -121 -11 -67 0 -119 4 -117 9 30 82 115 281
119 281 4 0 32 -60 63 -134z"/>
<path d="M6947 10664 c-11 -11 -8 -414 3 -454 5 -19 24 -52 41 -73 104 -127
305 -108 382 36 21 40 22 54 22 267 0 218 -1 225 -20 225 -19 0 -20 -8 -25
-220 -3 -145 -9 -227 -17 -241 -20 -35 -80 -82 -121 -95 -68 -20 -165 25 -205
95 -8 14 -14 96 -17 241 -4 188 -7 220 -20 223 -9 1 -19 0 -23 -4z"/>
<path d="M7514 10656 c-11 -30 7 -36 106 -36 l100 0 2 -277 3 -278 23 -3 22
-3 0 280 0 280 103 3 c94 3 102 4 102 23 0 19 -8 20 -228 23 -193 2 -228 0
-233 -12z"/>
<path d="M8053 10663 c-7 -2 -13 -9 -13 -15 0 -6 47 -75 105 -153 l105 -143 0
-147 c0 -146 0 -146 23 -143 21 3 22 7 27 153 l5 150 98 132 c96 129 111 164
76 171 -11 2 -47 -40 -110 -129 l-94 -131 -17 23 c-108 148 -175 233 -183 235
-5 1 -16 0 -22 -3z"/>
<path d="M5441 9820 c-100 -24 -150 -134 -97 -215 23 -35 52 -52 147 -85 103
-37 143 -73 142 -126 -3 -109 -178 -135 -280 -42 -23 22 -53 18 -53 -5 0 -21
58 -62 113 -81 67 -23 123 -20 185 9 66 31 93 79 82 150 -10 67 -46 98 -154
137 -97 34 -156 79 -156 117 0 104 155 144 250 65 29 -25 60 -27 60 -3 0 22
-60 67 -104 78 -50 12 -85 13 -135 1z"/>
<path d="M6892 9811 c-61 -21 -114 -67 -145 -126 -15 -29 -22 -64 -25 -131 -4
-82 -2 -96 22 -146 52 -109 156 -168 273 -154 143 17 231 123 236 282 3 134
-70 244 -184 278 -68 21 -111 20 -177 -3z m183 -50 c176 -80 172 -371 -7 -445
-109 -46 -242 12 -285 122 -37 96 -12 222 55 285 59 56 162 72 237 38z"/>
<path d="M7524 9819 c-106 -30 -182 -130 -191 -251 -10 -125 41 -229 138 -283
46 -26 64 -30 129 -30 65 0 83 4 129 30 212 117 174 476 -56 534 -49 13 -106
13 -149 0z m195 -74 c23 -16 54 -49 69 -74 24 -40 27 -57 27 -131 0 -75 -3
-91 -28 -133 -15 -26 -47 -60 -69 -75 -36 -23 -51 -27 -118 -27 -67 0 -82 4
-118 27 -143 95 -132 345 19 426 64 34 159 29 218 -13z"/>
<path d="M5960 9798 c-50 -115 -210 -515 -210 -525 0 -7 8 -13 19 -13 14 0 27
20 51 80 l32 80 133 0 133 0 32 -80 c24 -60 37 -80 51 -80 11 0 19 7 19 16 0
9 -48 135 -107 280 -85 208 -111 264 -125 264 -10 0 -23 -10 -28 -22z m80
-188 c28 -68 50 -130 50 -137 0 -10 -24 -13 -103 -13 -57 0 -106 2 -109 6 -3
3 19 64 48 137 30 72 54 133 54 136 0 14 16 -20 60 -129z"/>
<path d="M6330 9540 l0 -280 165 0 c158 0 165 1 165 20 0 19 -7 20 -145 20
l-145 0 0 260 c0 253 -1 260 -20 260 -20 0 -20 -7 -20 -280z"/>
<path d="M7988 9803 c-2 -9 -2 -135 0 -280 3 -253 3 -263 22 -263 19 0 20 10
22 235 l3 234 171 -232 c117 -159 178 -233 192 -235 21 -3 21 -2 24 261 2 145
2 271 0 280 -2 10 -12 17 -23 17 -18 0 -19 -11 -21 -237 l-3 -238 -175 238
c-167 227 -203 265 -212 220z"/>
<path d="M6023 8335 c-209 -104 -394 -283 -520 -500 -59 -102 -428 -850 -536
-1087 -21 -46 -42 -78 -50 -78 -24 0 -113 -183 -362 -740 -299 -669 -289 -649
-321 -650 -6 0 -18 -8 -27 -17 -19 -23 -99 -179 -157 -310 l-45 -101 -74 -4
-74 -4 -44 -48 c-88 -98 -251 -486 -384 -919 -68 -220 -69 -258 -11 -335 47
-62 218 -189 332 -247 190 -96 660 -245 775 -245 52 0 98 29 131 82 29 45 175
343 239 488 21 47 51 114 68 150 16 36 60 142 97 235 96 240 101 312 28 391
l-28 30 69 171 c69 169 88 239 83 299 -2 17 8 55 21 85 14 30 37 82 51 116 57
137 340 774 388 873 27 58 57 123 65 145 17 46 19 121 3 140 -8 9 -6 22 5 46
8 19 67 160 131 314 64 154 149 359 189 455 145 350 174 461 182 715 4 130 2
197 -11 283 -16 107 -59 280 -74 293 -24 22 -54 17 -139 -26z m97 -186 c59
-284 42 -532 -55 -804 -30 -82 -297 -722 -389 -930 -20 -44 -36 -88 -36 -98 0
-30 -27 -31 -128 -2 -241 68 -455 182 -500 267 -12 22 -10 30 19 79 17 30 103
200 191 379 322 655 359 727 412 807 72 110 144 192 233 264 89 73 215 151
226 140 4 -4 17 -50 27 -102z m-1034 -1765 c41 -26 116 -64 167 -86 116 -50
315 -108 372 -108 l44 0 -64 -132 c-34 -73 -126 -275 -203 -448 -77 -173 -154
-344 -170 -380 -63 -135 -122 -270 -122 -278 -1 -29 -17 -32 -106 -17 -262 46
-447 119 -601 237 -29 22 -53 45 -53 51 0 9 96 228 272 622 65 144 283 645
291 669 6 15 14 11 53 -33 25 -28 79 -71 120 -97z m-675 -1336 c152 -102 303
-158 548 -204 74 -13 137 -27 140 -29 6 -6 -51 -157 -99 -260 -20 -44 -42 -95
-49 -113 -8 -17 -29 -46 -48 -62 -30 -27 -40 -30 -102 -30 -110 0 -356 77
-500 156 -96 53 -208 143 -232 187 -11 20 46 170 142 374 l47 102 34 -32 c19
-18 72 -58 119 -89z m-448 -331 c-5 -50 -4 -54 38 -104 124 -148 360 -273 655
-348 72 -18 197 -20 245 -4 19 6 51 25 71 40 l37 29 16 -23 c20 -32 9 -63 -39
-105 -118 -103 -431 -75 -711 65 -222 111 -425 300 -425 396 0 54 46 105 97
106 20 1 21 -2 16 -52z m-72 -296 c105 -104 224 -182 402 -266 109 -50 162
-68 282 -95 109 -24 270 -27 340 -5 27 8 51 13 52 11 5 -5 -100 -251 -194
-456 -136 -294 -202 -424 -225 -443 -28 -23 -38 -21 -280 49 -326 93 -520 182
-681 308 -87 69 -120 113 -113 151 23 118 263 813 303 878 3 4 17 -12 32 -35
16 -24 52 -68 82 -97z"/>
<path d="M5614 7786 c-8 -22 13 -87 44 -137 57 -89 154 -143 274 -154 83 -7
133 10 133 45 0 25 -2 25 -95 30 -72 4 -106 11 -142 28 -52 26 -129 104 -159
163 -20 39 -45 51 -55 25z"/>
<path d="M8293 7205 c-197 -54 -321 -148 -355 -272 -5 -21 -17 -42 -25 -46
-23 -14 -10 -65 102 -402 96 -288 306 -979 390 -1280 66 -239 87 -297 125
-336 19 -20 42 -38 50 -41 12 -4 11 -12 -7 -54 -35 -82 -133 -391 -164 -519
-58 -237 -61 -438 -9 -595 59 -182 255 -481 689 -1059 113 -150 217 -289 231
-307 24 -33 27 -33 98 -34 39 0 72 2 72 5 0 3 -66 89 -147 193 -254 322 -622
830 -725 1000 -131 214 -173 415 -134 637 25 136 166 637 197 696 6 12 32 18
112 23 228 14 454 94 667 234 104 69 232 194 251 245 7 20 16 37 21 37 4 0 40
-13 80 -29 454 -180 704 -366 845 -626 l33 -60 0 127 0 127 -48 58 c-156 186
-416 346 -801 493 l-94 35 -22 65 c-34 102 -51 131 -355 575 -158 231 -365
535 -459 675 -237 351 -280 399 -381 435 -52 19 -167 18 -237 0z m200 -109
c58 -25 122 -107 368 -471 133 -198 335 -497 449 -665 252 -373 265 -395 291
-474 27 -81 16 -125 -47 -195 -128 -142 -360 -272 -590 -330 -145 -37 -298
-44 -339 -17 -27 18 -28 21 -175 526 -160 550 -256 851 -351 1105 -97 256 -99
304 -23 394 42 48 99 79 204 111 41 12 80 24 85 25 27 9 99 3 128 -9z"/>
<path d="M8400 6929 c-67 -48 -137 -77 -252 -103 -34 -8 -38 -40 -7 -57 12 -6
53 -11 93 -11 83 0 156 24 229 77 44 33 47 38 47 80 0 44 0 45 -33 45 -22 0
-49 -11 -77 -31z"/>
<path d="M22727 5023 c-4 -3 -7 -141 -7 -305 l0 -299 174 3 174 3 39 31 c87
70 74 225 -23 271 l-35 17 26 13 c53 28 75 136 41 201 -30 57 -78 72 -242 72
-77 0 -144 -3 -147 -7z m320 -67 c25 -21 28 -31 28 -81 0 -51 -3 -59 -33 -86
-32 -29 -34 -29 -152 -29 l-120 0 0 110 0 110 124 0 c118 0 127 -1 153 -24z
m6 -266 c75 -37 76 -170 1 -210 -19 -11 -61 -15 -153 -15 l-126 0 -3 109 c-1
61 0 116 3 124 7 19 236 12 278 -8z"/>
<path d="M23300 4725 l0 -305 158 -1 c179 -1 193 -1 207 12 24 23 -17 31 -164
30 l-151 -2 0 125 0 125 138 3 c114 3 137 6 137 18 0 12 -23 15 -137 18 l-138
3 0 114 0 114 158 3 c149 3 157 4 157 23 0 19 -8 20 -182 23 l-183 2 0 -305z"/>
<path d="M23959 4983 c-11 -26 -50 -120 -86 -208 -36 -88 -82 -199 -102 -246
-39 -90 -41 -109 -11 -109 13 0 27 23 53 88 l35 87 144 3 144 3 36 -88 c27
-68 40 -89 57 -91 32 -5 27 32 -19 133 -5 11 -20 47 -33 80 -13 33 -27 67 -30
75 -148 356 -151 359 -188 273z m109 -220 c23 -56 42 -107 42 -112 0 -7 -42
-11 -120 -11 -66 0 -120 2 -120 4 0 6 108 265 116 278 8 13 23 -16 82 -159z"/>
<path d="M24366 5021 c-3 -4 -6 -106 -6 -226 -1 -210 -1 -219 22 -264 80 -157
317 -158 401 -2 l28 51 -1 217 c0 120 -5 222 -9 226 -25 25 -31 -11 -31 -196
0 -106 -5 -209 -10 -229 -40 -143 -228 -178 -318 -60 l-27 35 -3 206 c-1 113
-4 216 -7 229 -5 22 -29 30 -39 13z"/>
<path d="M24934 5016 c-11 -30 7 -36 107 -36 l99 0 0 -274 c0 -210 3 -276 13
-284 33 -27 37 0 39 278 l3 275 100 5 c92 5 100 7 100 25 0 19 -8 20 -228 23
-193 2 -228 0 -233 -12z"/>
<path d="M25467 5023 c-16 -15 -1 -42 93 -169 l99 -133 3 -148 c3 -145 3 -148
26 -151 25 -4 24 -16 22 165 l-1 122 101 137 c68 92 100 143 98 157 -6 44 -35
19 -123 -105 -49 -70 -92 -127 -95 -127 -3 0 -47 58 -99 129 -87 121 -107 141
-124 123z"/>
<path d="M24320 4172 c-42 -12 -67 -28 -105 -66 -64 -64 -90 -137 -83 -230 13
-163 117 -266 268 -266 113 0 195 53 242 155 34 74 32 200 -4 270 -63 120
-187 174 -318 137z m134 -43 c55 -14 110 -59 138 -112 33 -63 34 -168 4 -233
-80 -172 -312 -172 -392 0 -63 135 2 302 133 343 49 15 65 15 117 2z"/>
<path d="M24949 4173 c-127 -33 -208 -154 -197 -297 14 -163 117 -266 268
-266 146 1 251 98 266 249 14 127 -41 242 -140 293 -57 29 -134 37 -197 21z
m125 -44 c131 -33 204 -202 146 -337 -77 -180 -314 -184 -396 -8 -64 137 9
315 141 345 56 12 61 12 109 0z"/>
<path d="M22821 4158 c-32 -16 -48 -32 -62 -62 -24 -52 -24 -70 1 -121 23 -48
48 -64 162 -105 92 -33 124 -58 132 -104 21 -116 -162 -157 -275 -62 -30 25
-59 25 -59 1 0 -20 66 -71 109 -84 93 -27 204 -3 249 54 29 37 30 117 2 163
-21 34 -39 44 -167 92 -114 43 -150 97 -107 158 48 69 146 69 251 2 18 -11 25
-12 35 -2 15 15 -23 58 -71 78 -52 22 -148 18 -200 -8z"/>
<path d="M23383 4163 c-4 -10 -52 -126 -106 -258 -102 -247 -114 -287 -86
-293 11 -2 23 18 44 70 15 40 32 78 37 85 6 8 52 12 137 12 l128 1 27 -68 c35
-89 50 -111 67 -95 16 16 12 27 -114 333 -92 222 -116 260 -134 213z m88 -225
l48 -118 -115 0 -114 0 19 48 c61 151 84 208 89 216 7 12 18 -10 73 -146z"/>
<path d="M23755 4167 c-3 -7 -4 -134 -3 -282 l3 -270 158 -3 c135 -2 158 0
163 13 4 9 4 19 1 22 -4 3 -68 6 -144 7 l-138 1 -3 263 c-2 226 -4 262 -17
262 -9 0 -18 -6 -20 -13z"/>
<path d="M25415 4167 c-3 -7 -4 -134 -3 -282 3 -232 5 -270 18 -270 13 0 16
35 20 235 l5 234 175 -237 c112 -153 180 -237 190 -235 23 5 23 563 0 563 -13
0 -16 -35 -20 -237 l-5 -238 -125 171 c-226 309 -243 329 -255 296z"/>
</g>
</svg>
