<?xml version="1.0" standalone="no"?>
<!DOCTYPE svg PUBLIC "-//W3C//DTD SVG 20010904//EN"
 "http://www.w3.org/TR/2001/REC-SVG-20010904/DTD/svg10.dtd">
<svg version="1.0" xmlns="http://www.w3.org/2000/svg"
 width="150.000000pt" height="150.000000pt" viewBox="0 0 150.000000 150.000000"
 preserveAspectRatio="xMidYMid meet">
<metadata>
Created by potrace 1.16, written by Peter Selinger 2001-2019
</metadata>
<g transform="translate(0.000000,150.000000) scale(0.007500,-0.007500)"
fill="#000000" stroke="none">
<path d="M12760 16921 c0 -67 1 -70 40 -109 l40 -40 0 -259 c0 -155 -4 -272
-10 -290 -21 -59 -114 -103 -218 -103 -81 0 -146 20 -193 59 l-34 29 -3 268
c-2 148 0 279 3 291 3 13 21 37 40 55 30 26 35 38 35 75 0 27 -5 43 -12 43 -7
0 -107 -55 -222 -122 -116 -66 -296 -170 -401 -231 -104 -60 -221 -127 -258
-149 l-68 -39 3 -57 3 -56 55 -32 c106 -60 749 -431 1050 -606 l145 -84 5 -68
c4 -61 3 -71 -17 -90 -60 -60 -204 -59 -269 1 -25 23 -25 25 -18 119 l7 96
-24 -13 c-26 -13 -671 -385 -837 -482 l-103 -60 3 -55 3 -56 85 -49 c47 -27
175 -101 285 -165 110 -63 243 -140 295 -170 52 -30 271 -156 485 -280 215
-124 444 -256 510 -295 66 -38 210 -121 320 -184 191 -111 464 -268 810 -468
88 -51 423 -244 745 -430 322 -185 619 -357 660 -382 43 -25 84 -42 95 -40 11
2 211 115 445 250 l425 247 3 -138 3 -138 63 -37 c34 -20 68 -37 74 -37 6 0
38 16 71 36 l61 36 0 937 -1 936 -217 124 c-119 68 -318 182 -442 254 -124 71
-244 141 -267 154 l-43 25 0 -112 c0 -104 -2 -112 -24 -135 -47 -47 -152 -57
-229 -20 -49 23 -57 55 -57 227 0 130 1 138 24 164 l23 28 -186 107 -186 107
-5 -111 c-3 -62 -9 -118 -14 -126 -15 -24 -90 -51 -141 -51 -64 0 -132 31
-145 65 -6 15 -10 95 -10 179 0 141 2 154 20 171 11 10 19 23 18 27 -2 5 -84
56 -183 113 l-180 103 -5 -113 c-4 -92 -8 -117 -24 -134 -36 -40 -155 -54
-220 -27 -61 25 -66 42 -66 221 0 147 2 163 20 183 11 12 20 23 20 26 0 2 -24
18 -52 34 -29 16 -112 63 -185 105 -73 43 -135 77 -139 77 -4 0 -4 -50 -1
-111 l7 -111 -28 -28 c-55 -54 -192 -59 -257 -9 l-25 20 0 173 c0 161 1 174
21 195 12 12 19 24 17 26 -6 6 -367 215 -372 215 -2 0 -4 -30 -5 -67 -1 -66 0
-69 39 -112 46 -50 51 -83 17 -121 -41 -47 -101 -65 -212 -65 -91 0 -104 2
-147 28 -54 31 -68 52 -68 98 0 23 9 40 35 65 l35 33 0 124 c0 111 2 126 20
142 11 10 20 22 20 26 0 4 -24 21 -52 36 -29 16 -113 64 -186 106 -73 42 -135
77 -137 77 -3 0 -5 -31 -5 -69z m-308 -1612 c38 -20 57 -23 153 -24 130 0 189
21 223 80 9 15 11 -33 12 -213 0 -272 -3 -285 -76 -328 -41 -24 -61 -29 -141
-32 -89 -4 -97 -3 -158 27 -59 29 -70 40 -66 64 0 4 -3 7 -9 7 -6 0 -10 89
-10 248 1 220 2 244 15 221 8 -15 34 -37 57 -50z m803 -32 c120 -71 140 -86
143 -110 2 -15 12 -32 23 -38 11 -5 29 -25 39 -42 18 -30 20 -52 20 -294 0
-163 -4 -271 -11 -285 -12 -28 -64 -65 -110 -79 -43 -13 -170 -12 -221 1 -21
6 -56 28 -78 49 l-40 38 0 269 c0 249 2 271 20 301 10 17 28 37 39 43 19 10
21 20 21 120 0 61 3 110 8 109 4 0 70 -37 147 -82z m638 -368 c78 -45 143 -82
144 -83 2 -1 4 -11 6 -23 1 -11 20 -36 40 -55 l37 -35 0 -282 c0 -315 0 -315
-70 -351 -113 -58 -289 -40 -361 36 -24 25 -24 27 -27 295 -3 293 1 321 53
349 24 13 25 17 25 122 0 59 2 108 5 108 3 0 70 -37 148 -81z m647 -375 c111
-63 150 -91 150 -105 0 -10 17 -34 38 -53 l37 -34 3 -269 c2 -240 1 -272 -15
-303 -27 -53 -89 -83 -186 -88 -105 -6 -175 10 -223 52 l-39 34 -3 270 c-3
296 2 331 52 354 26 11 26 13 26 120 0 59 2 108 5 108 2 0 72 -39 155 -86z
m2127 -1121 c-2 -2 -134 72 -293 165 -159 92 -315 182 -346 200 l-58 32 0 -64
c0 -61 2 -65 40 -104 l40 -40 0 -277 c0 -265 -1 -278 -21 -306 -39 -56 -91
-74 -209 -74 -89 0 -112 3 -152 23 -76 37 -80 50 -86 251 -2 97 -1 225 3 286
7 108 8 110 41 140 l34 31 0 102 c0 56 3 102 8 102 4 0 30 -14 57 -30 28 -16
55 -30 62 -30 12 0 55 24 338 188 72 42 222 128 335 193 l205 117 3 -450 c1
-248 1 -453 -1 -455z m-1486 751 c108 -62 149 -91 149 -105 0 -10 9 -23 21
-29 11 -6 29 -26 39 -43 18 -30 20 -52 20 -297 0 -302 -2 -309 -82 -352 -37
-20 -58 -23 -153 -23 -95 0 -116 3 -153 23 -80 43 -82 51 -82 345 0 280 4 308
54 340 25 17 26 20 26 122 0 58 3 105 6 105 4 0 73 -39 155 -86z"/>
<path d="M5986 15018 c-8 -29 -17 -70 -21 -92 l-6 -38 -64 7 c-62 6 -105 -4
-105 -25 0 -16 42 -50 93 -76 42 -22 62 -44 38 -44 -15 0 -91 -118 -131 -203
-65 -138 -80 -240 -80 -544 0 -142 -5 -278 -11 -303 -13 -59 -61 -151 -147
-287 -92 -143 -105 -174 -105 -253 -1 -128 78 -214 208 -227 50 -5 53 -7 63
-42 12 -38 48 -83 95 -117 l29 -20 -59 -38 c-32 -22 -85 -66 -118 -100 -33
-34 -90 -81 -125 -106 -94 -65 -237 -212 -303 -311 -136 -206 -229 -479 -269
-799 -19 -157 -16 -627 6 -810 31 -260 85 -549 145 -780 43 -167 51 -192 71
-249 l22 -59 -134 -134 c-218 -217 -362 -411 -498 -671 -58 -112 -137 -296
-160 -372 l-12 -41 -121 -23 c-183 -35 -422 -126 -531 -204 l-29 -21 6 55 c19
157 29 280 23 286 -3 4 -79 -13 -169 -37 -89 -24 -171 -45 -182 -48 -29 -6 33
37 219 154 l161 100 39 152 c21 84 36 155 33 159 -5 4 -185 -48 -327 -95 -33
-11 19 28 188 141 l173 115 63 125 c34 68 92 165 129 216 l67 92 -37 -7 c-323
-58 -725 -352 -921 -671 -90 -146 -146 -307 -181 -518 l-19 -109 70 -68 c45
-44 67 -72 62 -80 -4 -7 -3 -10 1 -5 5 4 21 -4 35 -18 l27 -26 6 134 c10 220
70 473 154 642 34 70 91 165 99 165 2 0 -18 -44 -45 -97 -52 -103 -102 -248
-127 -367 -22 -102 -44 -325 -44 -441 l0 -100 43 -65 c72 -111 72 -110 29
-182 -20 -35 -40 -64 -44 -66 -5 -2 -8 -13 -8 -23 0 -11 -9 -39 -21 -62 -36
-73 -50 -127 -57 -211 -8 -87 3 -252 17 -270 4 -6 11 -24 15 -40 7 -29 44 -86
56 -86 4 0 10 60 13 133 3 72 12 164 21 202 75 344 291 626 643 842 46 27 79
54 75 58 -4 5 -2 5 4 2 6 -3 42 9 80 27 74 36 114 51 114 42 0 -3 -35 -21 -77
-41 -167 -77 -357 -216 -483 -353 -65 -70 -202 -261 -190 -265 3 -1 -5 -15
-16 -32 -69 -96 -142 -351 -158 -547 l-5 -68 40 0 c22 0 74 14 116 30 77 31
187 102 176 114 -4 3 7 2 23 -4 36 -13 124 -87 124 -105 0 -19 -62 -71 -120
-100 -105 -53 -191 -70 -365 -70 -135 0 -173 4 -244 23 -119 32 -217 86 -242
134 -14 27 16 59 99 105 34 19 62 36 62 37 0 3 -21 27 -91 104 -21 24 -39 48
-39 53 0 6 -7 17 -15 25 -13 14 -19 13 -49 -5 -51 -32 -122 -113 -136 -156
-10 -29 -11 -83 -7 -210 17 -484 126 -905 267 -1034 182 -165 655 -154 803 20
101 117 180 360 222 683 20 157 37 436 29 489 -10 61 -41 116 -92 164 l-46 42
20 23 c25 28 57 79 52 82 -2 2 -64 13 -138 26 -74 12 -139 26 -143 30 -4 4 71
17 167 30 l176 23 63 76 c34 42 79 97 99 122 l36 45 -139 24 c-76 13 -139 26
-139 30 0 13 121 31 248 37 l123 6 41 54 c22 29 42 52 44 50 2 -1 -3 -57 -11
-122 -12 -98 -14 -361 -15 -1426 l0 -1307 343 -198 c188 -108 511 -295 717
-414 1707 -987 2340 -1350 2355 -1350 9 0 57 21 106 46 l88 46 4 1296 c3 1182
4 1306 20 1402 39 227 114 484 192 656 36 77 37 78 50 54 21 -40 84 -231 91
-277 5 -35 3 -44 -10 -49 -38 -15 -46 -56 -46 -237 0 -199 11 -251 65 -314 19
-22 70 -62 112 -89 123 -76 190 -129 312 -252 129 -129 232 -202 330 -233 53
-17 90 -21 186 -21 238 2 397 72 412 181 5 38 3 44 -34 79 -22 21 -75 63 -119
94 -86 61 -340 312 -485 479 -131 152 -220 286 -244 367 -15 52 -57 268 -74
377 -42 283 -44 304 -31 335 10 24 10 53 0 144 l-12 114 78 75 c92 87 203 181
209 176 6 -6 124 -275 171 -390 24 -58 52 -139 63 -180 33 -128 33 -127 11
-134 -37 -12 -42 -39 -40 -242 1 -173 3 -201 21 -243 25 -58 71 -103 169 -163
102 -62 227 -164 297 -242 115 -126 240 -209 366 -242 119 -30 344 -6 455 50
85 42 124 117 92 177 -5 10 -67 61 -137 113 -148 109 -359 323 -550 557 -149
183 -179 244 -218 445 -46 240 -130 844 -119 855 8 8 330 195 874 508 220 127
333 192 670 387 321 186 400 231 490 282 52 30 96 56 98 58 2 2 -36 30 -85 62
-177 116 -321 220 -752 542 -238 178 -297 217 -352 235 -99 33 -154 70 -259
171 -52 51 -110 100 -127 109 -18 9 -81 28 -140 42 -119 28 -149 43 -164 81
-25 66 56 157 204 229 122 59 182 71 266 50 36 -9 99 -32 139 -51 39 -19 72
-33 72 -31 0 2 -7 23 -15 46 -18 52 -11 106 16 121 24 12 48 0 82 -40 14 -17
63 -55 109 -84 132 -86 170 -135 218 -277 l21 -66 182 -92 c100 -50 318 -162
484 -247 l302 -155 98 40 c295 119 427 179 433 195 3 9 46 34 95 56 50 22 107
47 128 57 l38 17 -123 90 c-124 90 -366 270 -513 382 -68 51 -93 64 -165 82
-177 46 -385 129 -405 161 -10 16 -80 49 -149 71 -101 31 -113 68 -36 107 49
24 165 31 215 12 l26 -10 -19 27 c-46 64 -105 105 -214 152 -42 18 -79 40 -82
48 -17 44 77 133 211 200 113 57 201 67 310 38 131 -36 332 -199 520 -425 71
-85 72 -86 240 -173 92 -48 218 -113 278 -145 61 -32 182 -96 270 -141 88 -46
201 -105 251 -132 l92 -50 88 26 c49 15 123 29 164 31 41 3 137 17 213 31
l137 27 0 168 0 167 -118 -6 c-303 -15 -403 84 -429 422 l-8 98 -60 19 c-33
11 -62 21 -64 23 -2 2 32 52 74 112 70 96 95 147 94 193 0 9 -33 31 -79 54
-79 38 -80 39 -80 77 0 34 -4 41 -42 62 -24 14 -371 215 -773 447 -401 233
-760 440 -797 462 -90 51 -158 77 -246 94 -41 8 -78 14 -83 14 -5 0 -9 -87 -9
-202 l0 -203 80 -24 c44 -14 76 -29 73 -34 -3 -6 -1 -7 6 -3 13 8 116 -51 167
-97 51 -44 104 -138 111 -196 16 -137 -119 -293 -315 -364 -113 -41 -137 -47
-229 -62 -112 -19 -211 -19 -340 0 -258 37 -451 146 -527 297 -25 50 -28 65
-24 120 7 82 27 119 102 193 122 119 318 190 559 202 l137 6 0 174 0 174 -22
-7 c-68 -20 -130 -49 -212 -96 -50 -28 -289 -166 -531 -306 -242 -140 -530
-306 -640 -369 -110 -64 -238 -138 -285 -166 -47 -27 -105 -61 -130 -75 -25
-14 -99 -56 -164 -94 -66 -37 -123 -68 -128 -68 -5 0 2 21 16 48 91 180 332
802 322 829 -3 8 -2 12 3 8 5 -3 12 8 16 24 4 18 23 44 48 64 112 93 264 261
301 334 9 17 20 35 26 38 6 4 33 -7 60 -24 28 -17 52 -31 54 -31 3 0 1 13 -4
30 -5 19 -4 45 6 76 19 64 29 75 58 61 23 -11 23 -13 8 -43 -20 -43 -13 -55
44 -83 27 -13 122 -66 211 -117 104 -60 168 -92 178 -88 12 5 13 9 5 14 -9 6
-8 14 5 34 10 14 21 26 26 26 5 0 9 6 9 13 0 6 -59 46 -131 87 -73 41 -155 90
-183 108 -28 19 -63 40 -78 48 -25 13 -27 18 -17 35 6 13 9 61 7 123 -3 90 -6
107 -28 139 -14 20 -36 41 -50 46 -14 4 -42 25 -62 45 -26 26 -45 36 -68 36
-22 0 -44 10 -67 30 -41 36 -81 39 -129 9 -19 -11 -34 -17 -34 -12 0 4 9 42
20 83 40 152 36 256 -11 281 -49 26 -79 -14 -169 -229 -32 -75 -78 -178 -103
-228 -40 -81 -49 -92 -85 -106 -32 -12 -46 -26 -65 -65 -30 -59 -83 -186 -143
-347 -26 -68 -95 -211 -163 -335 -65 -119 -169 -309 -231 -423 l-113 -207 -31
21 c-17 12 -202 191 -411 399 -209 208 -392 387 -406 398 -43 33 -163 87 -236
107 -38 9 -70 19 -72 20 -2 2 6 15 17 29 58 73 76 247 35 338 l-22 47 24 108
c13 59 29 150 35 202 l12 95 47 42 c26 23 63 70 82 105 32 60 34 68 34 163 0
87 -3 105 -24 140 l-23 40 33 25 c89 67 136 148 145 252 4 52 2 68 -15 95 -43
68 -115 96 -396 153 -82 17 -231 51 -330 75 -233 57 -329 69 -485 62 -134 -6
-245 -29 -338 -72 -30 -14 -56 -25 -57 -25 -2 0 -6 20 -10 46 -13 88 -34 144
-55 144 -15 0 -23 -12 -34 -52z m-407 -2706 c1 -24 65 -199 125 -342 20 -47
34 -91 31 -98 -3 -7 -1 -11 4 -8 5 3 16 -16 26 -42 10 -26 33 -82 51 -125 19
-43 34 -87 34 -97 0 -11 5 -20 11 -20 6 0 8 -7 5 -17 -4 -10 -4 -14 0 -10 4 4
16 -14 26 -40 16 -43 16 -53 3 -129 -24 -137 -56 -298 -62 -314 -3 -8 -7 -26
-8 -40 -3 -33 -38 -204 -80 -395 -31 -136 -51 -268 -72 -475 -4 -41 -5 -111
-2 -155 4 -44 8 -102 10 -128 l4 -49 -50 -26 c-64 -34 -281 -178 -290 -192
-13 -20 -30 -9 -44 28 -24 66 -98 374 -120 497 -12 66 -26 140 -31 165 -38
169 -64 541 -56 795 5 179 13 256 40 425 15 94 51 233 76 295 4 11 14 36 20
55 20 56 97 210 133 266 44 70 92 130 152 191 47 48 50 50 57 30 3 -12 6 -32
7 -45z m2256 -568 c269 -238 361 -314 448 -364 20 -12 37 -25 37 -29 0 -3
-172 -106 -383 -227 l-382 -222 -100 19 c-54 11 -101 21 -103 24 -13 13 -42
147 -42 195 0 30 16 165 35 300 32 222 37 246 58 260 78 52 150 150 181 244 6
18 9 17 39 -11 18 -16 113 -101 212 -189z m1012 -310 c23 -17 29 -30 31 -72 3
-42 7 -53 30 -67 62 -40 62 -38 62 -301 l0 -241 -162 81 c-90 45 -196 92 -235
105 l-73 23 0 136 0 135 45 44 c37 35 45 49 45 78 0 78 44 107 157 102 54 -2
79 -7 100 -23z m-357 -929 c16 -8 34 -24 40 -34 6 -11 10 -89 10 -178 0 -181
-3 -191 -75 -219 -82 -31 -198 -5 -223 51 -8 16 -12 82 -12 179 0 174 4 185
75 212 47 17 141 12 185 -11z m-601 -289 c17 -9 36 -28 41 -42 6 -14 10 -94
10 -177 0 -176 -4 -186 -77 -211 -79 -27 -165 -15 -209 29 -23 23 -24 29 -24
188 0 186 3 196 75 223 49 18 139 13 184 -10z m-611 -286 c23 -10 44 -25 47
-32 6 -17 13 -328 7 -350 -2 -10 -18 -26 -36 -37 -67 -41 -185 -38 -237 6
l-29 25 0 172 c0 166 1 173 23 194 12 11 33 25 47 31 42 17 131 12 178 -9z
m130 -746 c-3 -204 -4 -206 -83 -247 -60 -32 -222 -31 -285 1 -80 40 -80 40
-83 307 -1 129 1 235 4 235 3 0 16 -11 28 -24 57 -61 260 -76 349 -25 23 13
47 35 54 48 12 22 13 18 16 -45 2 -38 2 -151 0 -250z m1824 187 c158 -84 364
-210 382 -235 26 -35 11 -68 -49 -104 -25 -15 -43 -32 -41 -39 3 -6 0 -14 -7
-17 -7 -3 -2 -3 10 0 18 4 24 0 29 -22 14 -55 -77 -84 -151 -48 -32 15 -35 15
-80 -11 l-46 -27 26 -24 c69 -64 -28 -121 -134 -78 -39 15 -41 15 -86 -12
l-47 -27 25 -13 c13 -8 28 -21 31 -30 23 -61 -71 -95 -163 -58 -37 15 -41 14
-81 -6 l-42 -22 32 -27 c27 -22 32 -32 27 -53 -12 -47 -104 -63 -170 -29 l-38
19 -45 -25 -45 -25 29 -19 c41 -24 50 -56 23 -83 -28 -27 -120 -28 -169 -3
-32 18 -33 18 -98 -19 -61 -34 -69 -36 -137 -32 -72 3 -74 4 -281 123 -115 66
-218 132 -228 146 -32 42 -17 70 63 116 68 39 69 40 49 58 -50 45 -3 90 87 83
31 -3 59 -10 61 -16 2 -7 23 1 51 19 27 16 53 29 59 29 5 0 33 -12 61 -26 57
-30 116 -35 155 -15 41 22 33 51 -24 90 -28 19 -49 35 -48 37 2 1 23 13 47 27
l43 25 65 -30 c75 -36 135 -35 165 2 23 28 11 52 -42 82 -22 13 -40 25 -40 28
0 3 20 16 44 30 l45 24 53 -27 c57 -29 111 -34 152 -15 52 23 39 70 -26 104
-16 8 -28 18 -28 22 0 4 19 17 43 30 l43 23 45 -25 c31 -18 59 -26 95 -26 100
0 126 63 44 109 -22 12 -40 24 -40 26 0 3 21 16 48 29 36 19 63 25 114 26 59
0 76 -5 140 -39z"/>
<path d="M10630 12104 c-62 -22 -91 -40 -96 -60 -10 -37 5 -63 49 -85 48 -25
132 -22 186 5 29 16 32 21 29 58 -2 30 -10 46 -28 59 -25 18 -113 32 -140 23z"/>
<path d="M14542 10917 c-21 -9 -22 -16 -22 -114 0 -120 -13 -112 140 -83 58
11 106 20 107 20 9 0 1 56 -13 90 -16 39 -18 40 -64 40 -36 0 -56 7 -86 28
-32 23 -44 27 -62 19z"/>
<path d="M15187 10633 c-8 -44 -37 -136 -62 -204 l-46 -124 19 -80 c11 -44 23
-105 27 -135 4 -30 11 -59 15 -65 10 -13 -3 -218 -37 -573 l-27 -294 -46 -25
c-394 -224 -683 -534 -875 -938 -55 -115 -85 -197 -209 -585 -42 -129 -80
-241 -84 -248 -7 -10 -16 -10 -48 2 -170 60 -345 196 -451 352 l-57 85 19 47
c52 134 89 350 83 492 l-3 75 -310 103 c-366 121 -409 131 -580 139 -203 9
-325 -29 -428 -132 -56 -56 -90 -123 -118 -239 l-22 -88 -36 6 c-20 4 -63 12
-96 18 -99 18 -319 14 -400 -6 -152 -39 -267 -121 -327 -232 -52 -97 -90 -314
-127 -719 -37 -401 -74 -1098 -89 -1675 -8 -296 -11 -280 65 -318 101 -52 247
-67 362 -38 47 12 83 13 228 3 94 -7 175 -15 178 -19 4 -3 -35 -265 -85 -581
-52 -334 -88 -587 -84 -602 7 -30 39 -55 71 -55 31 0 71 20 79 39 6 15 74 332
194 906 29 138 56 253 59 257 3 4 42 -2 86 -14 104 -28 256 -30 336 -6 73 23
148 74 174 118 29 50 27 189 -5 335 -13 61 -26 113 -30 117 -9 12 -117 -19
-197 -57 -39 -18 -91 -51 -115 -73 -65 -59 -178 -110 -178 -80 0 7 18 94 39
193 43 202 30 186 136 165 74 -15 182 -8 255 17 l55 18 15 79 c8 44 21 81 28
84 6 2 38 -12 69 -31 77 -46 249 -128 344 -163 l77 -29 61 -375 c71 -434 285
-1756 362 -2229 56 -345 58 -353 116 -367 33 -9 74 12 89 46 9 20 -14 244
-118 1120 l-129 1095 72 343 c40 188 70 345 67 347 -3 3 -43 -1 -89 -9 -96
-16 -227 -20 -279 -8 l-35 9 45 8 c149 26 275 161 428 460 76 149 192 429 272
658 21 59 40 104 42 100 3 -4 4 -3 2 3 -2 11 27 108 45 149 4 11 18 47 30 80
12 33 29 75 37 93 8 18 14 37 14 42 0 6 8 29 19 53 10 23 35 89 56 147 21 58
41 110 45 115 4 6 17 39 30 75 13 36 29 76 36 90 7 14 24 50 38 80 111 246
186 385 282 520 57 83 175 208 239 255 22 17 42 32 45 36 3 3 28 20 55 39 28
19 52 36 55 40 16 19 221 143 316 190 175 89 403 160 453 143 31 -11 -11 24
-73 61 -67 41 -108 45 -214 22 -34 -7 -64 -10 -67 -8 -3 3 -5 247 -5 542 0
502 -1 542 -20 614 -21 82 -73 190 -119 245 l-28 34 -16 -80z m-3439 -3379
c40 -38 322 -242 442 -320 154 -100 293 -182 416 -244 60 -30 111 -58 114 -61
3 -3 42 -21 87 -40 44 -19 80 -36 78 -39 -2 -3 4 -6 13 -7 31 -2 112 -35 107
-43 -3 -5 5 -6 17 -2 14 3 19 1 14 -6 -4 -7 -2 -10 7 -6 7 2 27 -1 43 -7 16
-7 36 -13 44 -14 8 -2 53 -12 100 -24 47 -11 115 -24 153 -27 47 -5 67 -11 67
-21 0 -39 -132 -237 -189 -282 -77 -61 -223 -67 -356 -15 -85 33 -299 142
-303 155 -2 5 -8 9 -14 9 -5 0 -29 14 -53 30 -24 17 -46 30 -48 30 -7 0 -321
210 -327 219 -3 4 -25 20 -50 35 -45 27 -59 37 -160 112 -141 106 -239 241
-255 349 -1 6 -6 19 -10 30 -5 11 -9 51 -9 90 -1 55 3 75 17 89 9 10 17 22 17
27 0 15 9 11 38 -17z m81 -674 l85 -81 -48 -302 c-26 -166 -61 -389 -78 -494
l-31 -193 -106 0 c-152 0 -211 9 -211 30 0 26 78 355 106 450 14 47 48 141 74
210 49 127 89 270 110 393 7 37 13 67 14 67 0 0 39 -36 85 -80z"/>
<path d="M13020 9443 c-187 -84 -408 -163 -455 -162 -16 0 -96 -24 -177 -55
-81 -31 -152 -56 -158 -56 -40 0 -9 -19 665 -415 231 -136 437 -258 457 -271
21 -13 40 -24 43 -24 9 0 5 115 -7 221 -11 98 -12 102 -47 132 -217 187 -291
340 -271 558 5 52 8 94 7 95 -1 1 -27 -9 -57 -23z"/>
<path d="M15035 6544 c-11 -8 -25 -12 -33 -9 -7 2 -10 1 -7 -5 3 -5 -42 -33
-100 -62 -58 -29 -105 -58 -105 -65 0 -6 29 -188 65 -405 118 -722 155 -949
250 -1532 58 -354 101 -589 110 -603 31 -46 106 -41 135 9 14 26 4 125 -128
1315 -163 1465 -153 1373 -161 1373 -3 0 -15 -7 -26 -16z"/>
<path d="M9883 5139 c-57 -28 -110 -89 -119 -136 -25 -133 114 -283 341 -368
86 -33 149 -42 397 -60 248 -18 251 -18 373 -54 76 -22 110 -26 220 -26 116 0
136 3 185 24 75 33 130 78 147 120 17 40 19 171 4 246 -25 122 -40 187 -45
193 -11 10 -121 -20 -191 -52 -38 -18 -94 -54 -123 -80 -101 -93 -182 -105
-564 -88 -193 8 -222 12 -263 32 -85 41 -108 122 -60 216 14 27 25 50 25 52 0
1 -64 2 -142 2 -123 -1 -149 -4 -185 -21z"/>
</g>
</svg>
